<svg xmlns="http://www.w3.org/2000/svg" version="1.1" xmlns:xlink="http://www.w3.org/1999/xlink" viewBox="0 0 10.647917892100292 3.590396041106558"><g transform="matrix(0.7516128354461481,0,0,0.7516128354461481,4.7554626072628166,1.3645238658426362)"><rect width="11.834444053200862" height="11.834444053200862" x="-5.160853438975291" y="-5.344222026600431" fill="#ffffff"></rect><g transform="matrix(1,0,0,1,0,0)" clip-path="url(#SvgjsClipPath96865)"><g clip-path="url(#SvgjsClipPath96860fc605787-7a49-4f64-b24a-baf7901f701f)"><path d=" M -1.276459688986177 -0.6289349400029939 C -1.2721882965788303 -0.6271047286052136 -1.2661999851520473 -0.6281257087291042 -1.2616237822982015 -0.6281257087291042 C -1.251283155336683 -0.6281257087291042 -1.2409438770939536 -0.6281257087291042 -1.2306032501324347 -0.6281257087291042 C -1.1937387194503954 -0.6281257087291042 -1.1568728400495658 -0.6281257087291042 -1.1200083093675262 -0.6281257087291042 C -1.0817950598956712 -0.6281257087291042 -1.0435804617050257 -0.6281257087291042 -1.0053672122331698 -0.6281257087291042 C -0.979336939589722 -0.6281257087291042 -0.953001856499776 -0.6290657657256059 -0.9271415224238448 -0.625832886786417 C -0.9089958598256609 -0.6235643417819465 -0.8907948997570947 -0.6187736926405202 -0.8737322583471334 -0.6122108270092758 C -0.867226038905061 -0.6097089536541671 -0.8604568192989746 -0.6067539107856806 -0.8543107077737835 -0.6034441548754722 C -0.8505653156944644 -0.6014278202846974 -0.846358661789028 -0.5987519622057025 -0.8421722386654396 -0.5979144078372267 C -0.8388786673807092 -0.5929740509101311 -0.8302401235319379 -0.5899097618196691 -0.8254481256717221 -0.5863154262448098 C -0.8161864737420559 -0.5793695244772574 -0.8076747094595276 -0.571773540253014 -0.7987434936333666 -0.5644661818497911 C -0.7929237720553104 -0.5597038558029512 -0.7878148252794879 -0.5535064929637467 -0.783098355671501 -0.5477420688560733 C -0.765084867514719 -0.525725583331118 -0.7492077499210064 -0.5028931229383233 -0.738860379365538 -0.4759902292378643 C -0.7239786162387087 -0.4372968358768348 -0.7226757538877466 -0.3975069341396846 -0.7226757538877466 -0.35649374446017096 C -0.7226757538877466 -0.3286197732310448 -0.7226757538877466 -0.30074715072070823 -0.7226757538877466 -0.27287317949158213 C -0.7226757538877466 -0.1546350493447869 -0.7226757538877466 -0.03639826791678136 -0.7226757538877466 0.08183986223001383 C -0.7226757538877466 0.4095785281552906 -0.7226757538877466 0.7373171940805674 -0.7226757538877466 1.0650558600058442 C -0.7226757538877466 1.0807913621266267 -0.7226757538877466 1.09652551552862 -0.7226757538877466 1.1122610176494023 C -0.7226757538877466 1.1191624116968906 -0.7241148368364798 1.12810441727337 -0.7215967788558939 1.134649749560347 C -0.7188952951198924 1.1416752257364986 -0.71304725044725 1.1467477571049967 -0.7083793347156977 1.1524528375859182 C -0.7022844745045189 1.159901811462071 -0.69692871219016 1.1679469190433234 -0.6908459904480906 1.175381057012789 C -0.6677141144839567 1.2036529002849117 -0.6477692610201577 1.2346235298554549 -0.6246238978681267 1.2629129064718445 C -0.6150844098677584 1.2745712316910136 -0.6073036511693104 1.287744168111146 -0.5976495220718072 1.299328313796875 C -0.589028511567304 1.3096743356335534 -0.582000337953573 1.3213434506030413 -0.5733725838551202 1.3316975647524578 C -0.5462592900234502 1.3642340568379785 -0.523432224505815 1.4002286639005865 -0.4966304847145926 1.4329863458676366 C -0.48342113288713495 1.4491305097817329 -0.4726327312873977 1.4672626851920187 -0.45940584611567203 1.4834284286067525 C -0.4395324747477347 1.5077188540113384 -0.4200731600482692 1.5331057877920438 -0.4089637633765557 1.562733093447931 C -0.3945203338564167 1.6012484559287048 -0.3977221922634393 1.6493100500037967 -0.41719094799443335 1.685466503321183 C -0.42813984713015873 1.7058011365152381 -0.44381465690539956 1.7224659058822038 -0.4615637961793775 1.7369875610921521 C -0.488561100195124 1.759076877431758 -0.526511349502965 1.771346172262714 -0.5609643709888137 1.7738075840541276 C -0.585600068403592 1.7755676620748375 -0.6110935509686928 1.7734029684171826 -0.635818263823599 1.7734029684171826 C -0.7365230497027868 1.7734029684171826 -0.8372264868631847 1.7734029684171826 -0.9379312727423725 1.7734029684171826 C -1.3596311305977573 1.7734029684171826 -1.7813296397343525 1.7734029684171826 -2.2030294975897373 1.7734029684171826 C -2.6292246351715782 1.7734029684171826 -3.0554197727534196 1.7734029684171826 -3.481614910335261 1.7734029684171826 C -3.53196662891546 1.7734029684171826 -3.582319696214449 1.7734029684171826 -3.6326714147946477 1.7734029684171826 C -3.6577400509409568 1.7734029684171826 -3.683166097566567 1.7721513573802332 -3.708199667024341 1.7734029684171826 C -3.723912240925697 1.774187922752856 -3.7396720199846967 1.7732910247576286 -3.7554048246678997 1.7740773278120907 C -3.787655388369979 1.775690395484711 -3.8217644865644242 1.7758684263649662 -3.8530520650505746 1.7669291182260667 C -3.869838219108624 1.762133074209481 -3.8855103314462855 1.7543792898868287 -3.9005269664520963 1.7456193613469744 C -3.9191298447200276 1.7347675699641154 -3.9336353153044983 1.718191816037277 -3.9470577647007468 1.7017860006779555 C -3.979890974920026 1.661656221805772 -3.980477667593596 1.6003960656535414 -3.96256803078363 1.5538315494351458 C -3.9530460761275292 1.5290744673292835 -3.934687315960555 1.5067167559505055 -3.9180603107197034 1.4863956099443485 C -3.8904088780908967 1.4526007632279294 -3.867053114807654 1.4153626374411112 -3.8394300052734334 1.3816001599756482 C -3.8241948778236727 1.3629797483634494 -3.8113753057264717 1.3423659303799023 -3.7961361321203415 1.3237401238925444 C -3.771171347320848 1.293228058710538 -3.748551984496845 1.2605647870587746 -3.724923780018059 1.2290600648474639 C -3.707233984370833 1.2054736706511628 -3.6906946458513197 1.1806302705427527 -3.6720540034572737 1.1578477127451818 C -3.6640952138785696 1.148120752833029 -3.6535387919106803 1.1371489254778764 -3.6511488622151265 1.1243994867577458 C -3.6484001733214813 1.1097402622312362 -3.6502047590622553 1.0934180674368836 -3.6502047590622553 1.0785430479040032 C -3.6502047590622553 1.0502199533178687 -3.6502047590622553 1.0218968587317334 -3.6502047590622553 0.9935737641455986 C -3.6502047590622553 0.9526630770941111 -3.6502047590622553 0.9117510413238346 -3.6502047590622553 0.8708403542723471 C -3.6502047590622553 0.8506958904276556 -3.6491986148450524 0.8302641494807337 -3.6502047590622553 0.810148008730629 C -3.6517989446718175 0.7782750862896983 -3.651553477852071 0.7463468663783852 -3.651553477852071 0.7143889746536962 C -3.651553477852071 0.427523231653792 -3.6502047590622553 0.1408071964395573 -3.6502047590622553 -0.14609361324888243 C -3.6502047590622553 -0.208583800937425 -3.6502047590622553 -0.27107533734475714 -3.6502047590622553 -0.3335655250332997 C -3.6502047590622553 -0.37580874624912536 -3.6530249300517603 -0.4185091831346983 -3.64130321504947 -0.4595358600021101 C -3.621656428438221 -0.5282989387820864 -3.569617462651962 -0.5864556929989503 -3.5026549234563897 -0.6122108270092758 C -3.465550320829763 -0.6264816205243185 -3.427848235779248 -0.6275862212131778 -3.38855331383796 -0.6275862212131778 C -3.362927656831457 -0.6275862212131778 -3.337301999824954 -0.6275862212131778 -3.311676342818451 -0.6275862212131778 C -3.2001818066207357 -0.6275862212131778 -3.0886886191418097 -0.6275862212131778 -2.977194082944094 -0.6275862212131778 C -2.5842677917506434 -0.6275862212131778 -2.191340151838402 -0.6275862212131778 -1.798413860644951 -0.6275862212131778 C -1.6783778883513314 -0.6275862212131778 -1.558341916057711 -0.6275862212131778 -1.4383059437640915 -0.6275862212131778 C -1.4018905364390606 -0.6275862212131778 -1.3654751291140297 -0.6275862212131778 -1.3290597217889992 -0.6275862212131778 C -1.315681780112815 -0.6275862212131778 -1.301907315112424 -0.6266596514045742 -1.2885981580945205 -0.6279908368501225 C -1.2845317709432256 -0.6283981499246473 -1.2804289683846055 -0.6277440213115861 -1.276459688986177 -0.6289349400029939 M -0.8880286775191819 1.3078252421727155 C -0.8854404861615257 1.306716595327487 -0.8835226080424072 1.30412840396983 -0.8815548273280656 1.3021606232554888 C -0.8763487727993762 1.296954568726799 -0.8686597269786356 1.2903269645936435 -0.8698209738566671 1.2821995851662122 C -0.87016489714807 1.279788075970022 -0.8726667705031788 1.2769206998228726 -0.8740020021050965 1.2749165037012062 C -0.8774196555184899 1.2697886748623257 -0.8808359602130937 1.2647255845253569 -0.8845220086656611 1.2598108532552679 C -0.8967171239631768 1.2435520482440359 -0.9073989767785191 1.2261616681681498 -0.9195886972008762 1.2099082580320775 C -0.92475833632224 1.203016305016118 -0.9299374164751328 1.195734572269902 -0.9346943476468144 1.1885985011529852 C -0.9376750161723075 1.1841274983647456 -0.9415957416943028 1.178771736050386 -0.9473723042710844 1.1784831102293656 C -0.9692768461364856 1.177387950572035 -0.9915239625744996 1.1784831102293656 -1.013459524972066 1.1784831102293656 C -1.0575181216789837 1.1784831102293656 -1.1015753696671116 1.1784831102293656 -1.1456339663740294 1.1784831102293656 C -1.2778084077759928 1.1784831102293656 -1.4099828491779562 1.1784831102293656 -1.5421572905799197 1.1784831102293656 C -2.0164571812381267 1.1784831102293656 -2.4907557231775437 1.1784831102293656 -2.9650556138357507 1.1784831102293656 C -3.0747509591678517 1.1784831102293656 -3.1844476532187427 1.1784831102293656 -3.2941429985508437 1.1784831102293656 C -3.326961372863435 1.1784831102293656 -3.3597810958948164 1.1784831102293656 -3.392599470207408 1.1784831102293656 C -3.4024896250931285 1.1784831102293656 -3.4123811286976387 1.1784831102293656 -3.422271283583359 1.1784831102293656 C -3.4266856401824266 1.1784831102293656 -3.432192459001245 1.1776091404535651 -3.4364328308764263 1.179022597745292 C -3.4398531817273996 1.1801622651226864 -3.4419666240710414 1.1849623552956419 -3.4438507842204142 1.187789269879096 C -3.4478362482443203 1.19376679155556 -3.452505512694663 1.2000167544275668 -3.457068228360611 1.205592357904666 C -3.4695492720415673 1.220846367417485 -3.4783820313960723 1.2389852864217197 -3.4907861981060093 1.2541462343380405 C -3.496746186438206 1.2614306645218372 -3.504628099045891 1.2713963476597863 -3.5076451829787088 1.2804462507394516 C -3.511551072594016 1.292163919585373 -3.4971143866678256 1.302768895429696 -3.487009785494525 1.303779085803268 C -3.4875317396661836 1.306386159223982 -3.4882007041859326 1.309099781429092 -3.4884933761633223 1.311736526663182 C -3.4933339278999718 1.3149640107272118 -3.500391773327079 1.3140293486058692 -3.5058918485519484 1.3140293486058692 C -3.512790545161857 1.3140293486058692 -3.5213656992275064 1.3140172101367606 -3.527606221067985 1.310657551631329 C -3.5367410934314085 1.3057387742048705 -3.5434968258495965 1.287877691271338 -3.5420375121190157 1.2781534287967649 C -3.540401516226969 1.2672476886623134 -3.531664515906541 1.2587885244125867 -3.5263923741571506 1.2495605904526668 C -3.520594232079732 1.239414178996881 -3.513455463525236 1.2298854807468316 -3.506970823583801 1.2201585208346786 C -3.5031337186267746 1.2144035377585343 -3.499730901120069 1.2076828720288812 -3.4953718419913837 1.2023554328091086 C -3.489030166241669 1.1946056946428256 -3.4823297312938633 1.1856812224106137 -3.4783779852397028 1.176460032044642 C -3.4852928664750893 1.1756912623344467 -3.4922360708050615 1.1769995195605683 -3.4991482546028685 1.1769995195605683 C -3.5166815988704756 1.1769995195605683 -3.534214943138083 1.1769995195605683 -3.5517482874056907 1.1769995195605683 C -3.558042757997762 1.1769995195605683 -3.564335879871043 1.1769995195605683 -3.570630350463114 1.1769995195605683 C -3.5734599624841477 1.1769995195605683 -3.5779107344905405 1.1765180269526043 -3.5804759976287706 1.1779436227134392 C -3.583865327947578 1.1798264341440223 -3.586321344863833 1.1843527344026452 -3.5884334384886847 1.187519526121133 C -3.592517358984247 1.193645406864477 -3.596726710327263 1.1999034620492228 -3.6013811388709174 1.205592357904666 C -3.617030322989152 1.2247198877818366 -3.6301209875631057 1.245963557440227 -3.645753987055863 1.2650708565355502 C -3.6567204195358562 1.2784730751499513 -3.665940261183038 1.2933386536513023 -3.6769093911006108 1.3067462671408625 C -3.7144968350539918 1.3526863265595743 -3.746443937028362 1.4032727222092005 -3.783997663011998 1.449170971345428 C -3.79658660419614 1.4645571552996481 -3.8071214466633925 1.4816305864599288 -3.819738710942121 1.4970504883838947 C -3.83315441674442 1.5134468627116864 -3.844226049290019 1.531774602346495 -3.857637708935949 1.5481669305179186 C -3.868509731100655 1.5614545080351856 -3.880397338514093 1.5761299171871725 -3.8865002910380104 1.5924049068238817 C -3.8976164313036734 1.622047048386457 -3.8868293784227252 1.6534168987187867 -3.860604890273544 1.6709003403911702 C -3.847413071790354 1.6796953356195605 -3.8338031504823213 1.6856418367638593 -3.818255120273323 1.6889731721747039 C -3.799200421210803 1.6930557439514768 -3.7775035820390337 1.6904567628435017 -3.7581022622475313 1.6904567628435017 C -3.7140544552909325 1.6904567628435017 -3.669985068833696 1.6903218909645201 -3.625927820845568 1.6903218909645201 C -3.4362156871512664 1.6903218909645201 -3.2464968098630154 1.6900521472065575 -3.0567684915432354 1.6900521472065575 C -2.987521222717715 1.6900521472065575 -2.918314415455889 1.6903218909645201 -2.849065797911579 1.6903218909645201 C -2.810453327677938 1.6903218909645201 -2.771607529093659 1.6914386301224875 -2.7330759819874064 1.689512659690631 C -2.700771469533735 1.6878968945804316 -2.66827139285554 1.690184321647959 -2.635968229120658 1.6885685565377593 C -2.618086915405278 1.6876743559801117 -2.5999264169004066 1.6885685565377593 -2.58201947752802 1.6885685565377593 C -2.5495868367893157 1.6885685565377593 -2.5172526525222683 1.6884350333775677 -2.4849117246612713 1.6900521472065575 C -2.4518141655591883 1.691707025161661 -2.418255344630987 1.6904567628435017 -2.3851065342148905 1.6904567628435017 C -2.324414188673172 1.6904567628435017 -2.263721843131455 1.6904567628435017 -2.2030294975897373 1.6904567628435017 C -1.89778880979738 1.6904567628435017 -1.5924550604085264 1.689782403448594 -1.2872494393047047 1.689782403448594 C -1.114598598301575 1.689782403448594 -0.9419531521736042 1.6904567628435017 -0.7693414240153782 1.6904567628435017 C -0.719438828792188 1.6904567628435017 -0.6695362335689974 1.6904567628435017 -0.6196336383458076 1.6904567628435017 C -0.6025183969030428 1.6904567628435017 -0.5854490118991325 1.6903663986845843 -0.5683823243328017 1.689512659690631 C -0.5592029442493138 1.6890540953020927 -0.549285814987797 1.6882677922476306 -0.5405987172625926 1.6849270158052565 C -0.5303376647096729 1.6809806646262546 -0.5205270842325516 1.675983661509987 -0.5120058789184938 1.6690121340854283 C -0.5062562907175088 1.66430780294655 -0.5007899334623849 1.6593364254872884 -0.4966304847145926 1.6530972523655996 C -0.4929822003881399 1.6476255002353166 -0.489702116291308 1.6418772607531207 -0.4877289407018073 1.6355639080979925 C -0.4759155128218091 1.5977593204194507 -0.5023234267264063 1.5655465208434867 -0.5248187074217459 1.538051539594299 C -0.5343770774851713 1.5263689374369134 -0.54237767734636 1.5134441652741064 -0.5519279550970468 1.5017710041482502 C -0.5665494154974411 1.4839004801831888 -0.5791194746185258 1.4643413602932773 -0.5937382375813414 1.4464735337657963 C -0.6424876782392395 1.3868911837880964 -0.6844571095407317 1.3218074098667378 -0.7331957604483108 1.2622385470769366 C -0.749230678140433 1.2426403143421205 -0.7630172816099314 1.2211444342700346 -0.7790521993020532 1.2015462015352185 C -0.7839359100399768 1.1955781208902831 -0.7877905483412708 1.1887684397205025 -0.7926742590791949 1.1827990103567771 C -0.7942940703457637 1.1808190911733267 -0.794985963084939 1.1780272432784085 -0.7973947748435508 1.1767297758026054 C -0.8010605925142702 1.174755251494314 -0.8057622262155681 1.1749764413758441 -0.8098029877098569 1.1749764413758441 C -0.8175257515003431 1.1749764413758441 -0.8250516023475165 1.1754012877946365 -0.8327312071367281 1.175785672649734 C -0.8465474824196026 1.1764762166701195 -0.8606914963684029 1.1772867966627996 -0.8745414896210231 1.1765949039236234 C -0.8834120131016427 1.1761511754417742 -0.8932360807666617 1.1754795134844456 -0.9020553529332682 1.176460032044642 C -0.8959631901596694 1.188644357591839 -0.8867743690446535 1.2011604679613317 -0.8781830303535254 1.2116615924588383 C -0.8700394663006166 1.2216151371276802 -0.8643451755700142 1.233668636952265 -0.8561989140795259 1.2436262277774766 C -0.8494175560043309 1.2519141047408955 -0.8405686120243487 1.2631313989157946 -0.8375865947800651 1.2735677849113904 C -0.834382038935463 1.2847850790862896 -0.8380168360740168 1.2948492186958964 -0.8443301887291454 1.3043185733191944 C -0.8462588565985825 1.3072115751233497 -0.8488645813005067 1.3111174647386559 -0.8520178858310965 1.3128155016950342 C -0.8602733935435594 1.317260878826268 -0.869785907168132 1.3146039028103307 -0.8785876459904705 1.3141642204848507 C -0.8818542428994052 1.314001025511283 -0.8852354809054734 1.3144245232112854 -0.888433293156127 1.3136247329689248 C -0.8882849340892474 1.3116879727867483 -0.8880286775191819 1.3097673972300508 -0.8880286775191819 1.3078252421727155 M -0.8044081125505933 -0.02201148458581459 C -0.8044081125505933 -0.11104580677672471 -0.8057568313404091 -0.19998032377718877 -0.8057568313404091 -0.28905780496937344 C -0.8057568313404091 -0.3115369010392358 -0.8057568313404091 -0.3340146483903086 -0.8057568313404091 -0.35649374446017096 C -0.8057568313404091 -0.37037071208858735 -0.8050635898824439 -0.3844459413791065 -0.8057568313404091 -0.39830402694446565 C -0.806878965373536 -0.4207332204191052 -0.8141714878700714 -0.44469995331413453 -0.824773766276814 -0.4643912476454474 C -0.8287295584873444 -0.47173771889357474 -0.83256936088195 -0.47977878031845766 -0.8378563385380287 -0.4862404920404657 C -0.8491491609651578 -0.5000419314166525 -0.8618985996852881 -0.5114291641590686 -0.8756204646528758 -0.5226558993654967 C -0.8882835853704574 -0.5330167571088628 -0.9083525209629189 -0.5402013821022124 -0.9244440848442133 -0.5422123218178279 C -0.935890661213381 -0.5436433124538227 -0.9479805764452909 -0.5426169374547728 -0.9595107733794275 -0.5426169374547728 C -0.9882829913225719 -0.5426169374547728 -1.017056557984505 -0.5426169374547728 -1.0458287759276486 -0.5426169374547728 C -1.1348442160555021 -0.5426169374547728 -1.2238596561833543 -0.5426169374547728 -1.312875096311208 -0.5426169374547728 C -1.3676762381790093 -0.5426169374547728 -1.422737682773246 -0.5440020716519136 -1.477418788668754 -0.5412682186649567 C -1.504239410523034 -0.5399275921878798 -1.5314821813585264 -0.5412682186649567 -1.558341916057711 -0.5412682186649567 C -1.6127397910073582 -0.5412682186649567 -1.667139014675795 -0.5412682186649567 -1.7215368896254417 -0.5412682186649567 C -1.8851809865501807 -0.5412682186649567 -2.0488264321937093 -0.5412682186649567 -2.2124705291184483 -0.5412682186649567 C -2.3761146260431882 -0.5412682186649567 -2.5397600716867164 -0.5412682186649567 -2.7034041686114554 -0.5412682186649567 C -2.757802043561103 -0.5412682186649567 -2.812201267229539 -0.5412682186649567 -2.8665991421791865 -0.5412682186649567 C -2.8934588768783707 -0.5412682186649567 -2.920701647713863 -0.5399275921878798 -2.947522269568143 -0.5412682186649567 C -2.997276505724454 -0.5437566048321671 -3.0473652241406386 -0.5426169374547728 -3.097230055237714 -0.5426169374547728 C -3.176355340479847 -0.5426169374547728 -3.2554792770031895 -0.5426169374547728 -3.334604562245322 -0.5426169374547728 C -3.3597810958948164 -0.5426169374547728 -3.384956280825521 -0.5426169374547728 -3.4101328144750154 -0.5426169374547728 C -3.4258238088757342 -0.5426169374547728 -3.441992249728048 -0.5438914767111487 -3.457337972118574 -0.5400543717541224 C -3.4779693234463886 -0.5348968711018662 -3.497984310287257 -0.5240734028135932 -3.5143887769277886 -0.5106523021361346 C -3.5458759657948318 -0.48489042453186004 -3.5621266784933243 -0.4473542318924922 -3.5680677847624636 -0.40774505847317744 C -3.572064038536688 -0.38110381621794276 -3.569281631673298 -0.35238015215123253 -3.569281631673298 -0.32547321229440407 C -3.569281631673298 -0.2045848497256207 -3.5691467597943163 -0.08368030253135927 -3.5691467597943163 0.037197270287105844 C -3.5664938299347484 0.03833424022692067 -3.5640297207057547 0.03826140941227063 -3.561189318934402 0.03854598907692186 C -3.5588708713347086 0.03877796870876982 -3.552053097852189 0.0406297596071874 -3.54999495297893 0.039085476592848 C -3.5461821249601204 0.036226192758438414 -3.5471006024559846 0.032045164510008606 -3.5468928997623532 0.027891110637375816 C -3.5464424276865545 0.01889245887172364 -3.5463534122464266 0.009943709701294656 -3.5463534122464266 0.0009167348410565879 C -3.5463534122464266 -0.04314186186586089 -3.5463534122464266 -0.08719910985398904 -3.5463534122464266 -0.13125770656090685 C -3.5463534122464266 -0.18250902057391305 -3.5463534122464266 -0.23376033458691925 -3.5463534122464266 -0.28501164859992545 C -3.5463534122464266 -0.3144123694991234 -3.5496604707190555 -0.3459980148378234 -3.541498024603089 -0.37456657624370515 C -3.5247968398287983 -0.43302274603190793 -3.4779167234135855 -0.4795117339980739 -3.4168764084240952 -0.48866818586213445 C -3.3934613015141 -0.4921802495908153 -3.3688755066945455 -0.4898429199280642 -3.3453943125638497 -0.48866818586213445 C -3.303374978667134 -0.48656688198760134 -3.260694772563408 -0.48866818586213445 -3.2186147463211503 -0.48866818586213445 C -3.081045429759923 -0.48866818586213445 -2.9434761131986953 -0.48866818586213445 -2.8059067966374682 -0.48866818586213445 C -2.38195997327825 -0.48866818586213445 -1.958011801200242 -0.48866818586213445 -1.534064977841024 -0.48866818586213445 C -1.3839080688144443 -0.48866818586213445 -1.233749811069075 -0.48866818586213445 -1.0835929020424957 -0.48866818586213445 C -1.0575181216789837 -0.48866818586213445 -1.0314419925966818 -0.48866818586213445 -1.0053672122331698 -0.48866818586213445 C -0.9866901544317987 -0.48866818586213445 -0.9672187012632261 -0.49022865350195144 -0.9487210230609002 -0.4874543389513001 C -0.9261030089556868 -0.4840623111949133 -0.9012798396291237 -0.47094197480758354 -0.883712777391771 -0.456568678664515 C -0.854306661617414 -0.4325102328917778 -0.8327730174192127 -0.3985832117339576 -0.8270665882195014 -0.36053990082961895 C -0.8252620024787278 -0.34850798050567083 -0.8258527413086667 -0.33626296261293165 -0.8258527413086667 -0.3241244935045883 C -0.8258527413086667 -0.3065911492369809 -0.8258527413086667 -0.28905780496937344 -0.8258527413086667 -0.271524460701766 C -0.8258527413086667 -0.21308042938267108 -0.8258527413086667 -0.1546350493447869 -0.8258527413086667 -0.09619101802569197 C -0.8258527413086667 -0.07826519659024811 -0.8266120699873336 -0.06013706733633206 -0.8257178694296856 -0.042242266433053954 C -0.8253806897322313 -0.03549192889002484 -0.8266970392710915 -0.028219637175337486 -0.8250435100347775 -0.021606868948869984 C -0.818639793220731 -0.020894745427847083 -0.8106445882347018 -0.020140811624339894 -0.8044081125505933 -0.02201148458581459 M -3.5690118879153347 0.12391988847227153 C -3.5690118879153347 0.18405925931016487 -3.5691467597943163 0.2442283019614344 -3.5691467597943163 0.30437846254964607 C -3.5691467597943163 0.3330279470829167 -3.570577750430311 0.36208744212829125 -3.5691467597943163 0.39069646509786704 C -3.5663238913672317 0.4471659721086714 -3.5671236816095924 0.504036048600051 -3.5671236816095924 0.5606350326146774 C -3.5671236816095924 0.5835632520415486 -3.5671236816095924 0.6064914714684198 -3.5671236816095924 0.6294196908952909 C -3.5671236816095924 0.6403955644068131 -3.566394024744302 0.6516492739890374 -3.5671236816095924 0.6625981731247632 C -3.5693949240516423 0.6966587174427754 -3.5662025066761482 0.7310510465830822 -3.568472400399408 0.765100801150776 C -3.5705399863041962 0.7961118922850141 -3.569281631673298 0.8275882914017387 -3.569281631673298 0.8587018851640029 C -3.569281631673298 0.9135030270318054 -3.5691467597943163 0.9683217022438746 -3.5691467597943163 1.0231107056425677 C -3.56464878263028 1.0241101062658216 -3.560451569756373 1.0248276246620034 -3.5557944437751385 1.0245942963113657 C -3.554766720057299 1.0245430449973523 -3.5520638876025075 1.024474260339072 -3.551343671768746 1.0236501931584947 C -3.548027172264588 1.0198602933591112 -3.548915977947077 1.0146097311103583 -3.548915977947077 1.00975838962339 C -3.548915977947077 0.9985195159478537 -3.548915977947077 0.9872792935535273 -3.548915977947077 0.9760404198779911 C -3.548915977947077 0.9224571710773934 -3.5468928997623532 0.8690681377825287 -3.5468928997623532 0.8155428838898928 C -3.5468928997623532 0.7149149749817243 -3.547702131036243 0.6141252198187781 -3.547702131036243 0.513429874971119 C -3.547702131036243 0.48330893823815924 -3.547702131036243 0.4531866527864099 -3.547702131036243 0.4230657160534501 C -3.547702131036243 0.40829319914859585 -3.5484398802142723 0.39330893339374073 -3.547702131036243 0.3785579959895238 C -3.5457990888238125 0.3405038953348668 -3.5471626435203163 0.30204113288689527 -3.5471626435203163 0.2639168988551678 C -3.5471626435203163 0.2511566703847189 -3.5480109876391106 0.23807140068592458 -3.5471626435203163 0.22534354146643132 C -3.5460202787053423 0.2082094179606092 -3.5468928997623532 0.19073541731975407 -3.5468928997623532 0.17355273993749876 C -3.5468928997623532 0.1570875809514255 -3.545927217108845 0.14027849867394915 -3.547971874794206 0.12391988847227153 C -3.554459212173221 0.12229872848691303 -3.562555571068486 0.12230547208086195 -3.5690118879153347 0.12391988847227153 M -0.8619984048757341 -0.021606868948869984 C -0.8612647018540747 -0.031149054386817587 -0.8616571790219107 -0.04080048604674069 -0.8621332767547161 -0.05033457917194961 C -0.863392980104404 -0.07551920513418298 -0.863392980104404 -0.10202692422922577 -0.8621332767547161 -0.1272115501914589 C -0.8591526082292233 -0.1868127822322157 -0.8602450704489737 -0.2468658350675612 -0.8602450704489737 -0.3065911492369809 C -0.8602450704489737 -0.32684216186606757 -0.8600292754426029 -0.34685310255056684 -0.864291226818422 -0.36674400726277206 C -0.8703321382780072 -0.3949349274075054 -0.8915299514975445 -0.42550633621626377 -0.9166215158632802 -0.4398445656707969 C -0.9303851911133525 -0.447708944934214 -0.9450255335768052 -0.4540587129966672 -0.9608594921692442 -0.45643380678553325 C -0.9780597028957669 -0.4590139058304512 -0.9961028628659245 -0.4576476536963675 -1.013459524972066 -0.4576476536963675 C -1.040433900768385 -0.4576476536963675 -1.0674082765647044 -0.4576476536963675 -1.0943826523610234 -0.4576476536963675 C -1.2193643764568982 -0.4576476536963675 -1.3443447518339835 -0.4576476536963675 -1.4693264759298588 -0.4576476536963675 C -1.935983177206178 -0.4576476536963675 -2.402639878482498 -0.4576476536963675 -2.869296579758818 -0.4576476536963675 C -3.007315019677054 -0.4576476536963675 -3.1453348083140797 -0.4576476536963675 -3.2833532482323156 -0.4576476536963675 C -3.310327624028635 -0.4576476536963675 -3.337301999824954 -0.4576476536963675 -3.364276375621273 -0.4576476536963675 C -3.3971486986854575 -0.4576476536963675 -3.4315814893894587 -0.45694631992566337 -3.459361050303298 -0.43674251245422036 C -3.4862369696279605 -0.41719687975220754 -3.50507182752774 -0.39008088848295763 -3.5120959549851016 -0.3573029757340606 C -3.5142916691749218 -0.3470594565254087 -3.5137144175328805 -0.3358934136645224 -3.5137144175328805 -0.32547321229440407 C -3.5137144175328805 -0.30703218028125057 -3.5131749300169544 -0.2886073328935747 -3.5131749300169544 -0.2701757419119499 C -3.5131749300169544 -0.20863370353264782 -3.5137144175328805 -0.14699860355684902 -3.5137144175328805 -0.0854012677071645 C -3.5137144175328805 -0.05535990538280411 -3.5146747053112297 -0.02502452236226349 -3.5131749300169544 0.0049628912105046386 C -3.5126313963446583 0.015824123624892605 -3.513880309944028 0.027432546248838507 -3.5120959549851016 0.03814137343997692 C -3.508466552721707 0.039351174194441785 -3.504273386004169 0.03881573283488482 -3.5004969733926843 0.03881573283488482 C -3.4931113892996524 0.03881573283488482 -3.485477640949294 0.03872941483233694 -3.4781082414817392 0.03922034847182976 C -3.4568834538864057 0.04063515448234667 -3.435471194379288 0.04002957974571908 -3.414178970844463 0.04002957974571908 C -3.342247751627209 0.04002957974571908 -3.270315183691165 0.04002957974571908 -3.1983839644739107 0.04002957974571908 C -3.173657902900215 0.04002957974571908 -3.1489304926077293 0.04002957974571908 -3.124204431034033 0.04002957974571908 C -3.109885083642557 0.04002957974571908 -3.0957680440695534 0.03877392255240042 -3.084012611097518 0.04839163624257836 C -3.063799362594546 0.06492962604330121 -3.0637508087181127 0.10094176645017716 -3.086844920556131 0.11515321633846798 C -3.102183899352708 0.12459289914838978 -3.1203983466091727 0.12270604156143716 -3.137691618932193 0.12270604156143716 C -3.219517039191537 0.12270604156143716 -3.301359992795149 0.12311065719838188 -3.3831584386786964 0.12311065719838188 C -3.410621050676929 0.12311065719838188 -3.4380189241732504 0.12365014471430824 -3.4654302848574696 0.12365014471430824 C -3.4806748533387593 0.12365014471430824 -3.497141361043622 0.12189950772512737 -3.512230826864083 0.12405476035125329 C -3.5139571869150474 0.13613658327042455 -3.5126354425010278 0.14921241193769008 -3.5126354425010278 0.16141427082915505 C -3.5126354425010278 0.19121690992771823 -3.5111936621147146 0.22151992369730322 -3.5131749300169544 0.2512389422308976 C -3.5156295982144194 0.2880522215989241 -3.513984161290844 0.3254548910781001 -3.513984161290844 0.36237337051173213 C -3.513984161290844 0.42846059121271396 -3.513984161290844 0.4945478119136957 -3.513984161290844 0.5606350326146774 C -3.513984161290844 0.6635867839976985 -3.513984161290844 0.7665398840995095 -3.513984161290844 0.8694916354825306 C -3.513984161290844 0.9032096052279297 -3.513984161290844 0.9369275749733288 -3.513984161290844 0.9706455447187272 C -3.513984161290844 0.9872981756165855 -3.515779306000089 1.0051120533924736 -3.5137144175328805 1.0216271149737706 C -3.506787397828386 1.0233588698998939 -3.499517803551278 1.0227060900056226 -3.4924046606537886 1.0227060900056226 C -3.480266191545445 1.0227060900056226 -3.468127722437101 1.0227060900056226 -3.4559892533287577 1.0227060900056226 C -3.4164272850670865 1.0227060900056226 -3.3768639680866253 1.0227060900056226 -3.337301999824954 1.0227060900056226 C -3.210522433582254 1.0227060900056226 -3.083742867339555 1.0227060900056226 -2.956963301096855 1.0227060900056226 C -2.5509989453622532 1.0227060900056226 -2.1450345896276506 1.0227060900056226 -1.7390702338930493 1.0227060900056226 C -1.5385602575674806 1.0227060900056226 -1.338051629960702 1.0227060900056226 -1.1375416536351333 1.0227060900056226 C -1.0750514659465908 1.0227060900056226 -1.0125599295392589 1.0227060900056226 -0.9500697418507165 1.0227060900056226 C -0.9302880833604861 1.0227060900056226 -0.9105077735890448 1.0227060900056226 -0.8907261150988144 1.0227060900056226 C -0.8817274633331627 1.0227060900056226 -0.8708810668254623 1.024354224366778 -0.8621332767547161 1.0221666024896963 C -0.8612377274782781 1.0114213598912332 -0.8619984048757341 1.0003133119383085 -0.8619984048757341 0.9895276077761508 C -0.8619984048757341 0.9581914754135672 -0.8635629186719216 0.9264089171315539 -0.8619984048757341 0.8951172924890336 C -0.8604730039244526 0.8646160170573465 -0.8605148142069368 0.8339771723090974 -0.8605148142069368 0.8034044147815489 C -0.8605148142069368 0.7893049085528125 -0.8614521737658594 0.7748479918447764 -0.8605148142069368 0.7607849010233652 C -0.8580965614167968 0.724511109171265 -0.8602450704489737 0.6873700911373133 -0.8602450704489737 0.6509991915323463 C -0.8602450704489737 0.579517095672101 -0.8602450704489737 0.508034999811855 -0.8602450704489737 0.4365529039516096 C -0.8602450704489737 0.35473018112984533 -0.8602450704489737 0.27290880702687037 -0.8602450704489737 0.1910860842051061 C -0.8602450704489737 0.16456083176579572 -0.8602450704489737 0.138036928045275 -0.8602450704489737 0.11151167560596498 C -0.8602450704489737 0.10155813093712307 -0.8605579732082114 0.09175699149153071 -0.8610543017228633 0.08183986223001383 C -0.861338881387514 0.07614826893699056 -0.8606537322422878 0.07048904489492291 -0.8615937892387895 0.06484600547833286 C -0.8777568352159442 0.06215261405507044 -0.8959051952517076 0.0643065179624065 -0.9123056157358693 0.0643065179624065 C -0.9460235854812686 0.0643065179624065 -0.9797415552266671 0.0643065179624065 -1.013459524972066 0.0643065179624065 C -1.1177599951449029 0.0643065179624065 -1.2220618140365298 0.0643065179624065 -1.3263622842093676 0.0643065179624065 C -1.3263622842093676 0.10836511466932419 -1.3263622842093676 0.15242236265745213 -1.3263622842093676 0.19648095936436993 C -1.3263622842093676 0.20951902390552046 -1.3263622842093676 0.22255573972788179 -1.3263622842093676 0.23559380426903243 C -1.3263622842093676 0.2435917066926414 -1.3271553308577793 0.25215607100797244 -1.3247438216615883 0.25987074248571973 C -1.3231455898956557 0.2649864328554916 -1.318600407573976 0.26905686616315605 -1.3153027901328764 0.27308818662591594 C -1.3112579824822186 0.2780312409905914 -1.3073480467105418 0.2831105159530385 -1.3032991929035145 0.28805896519287333 C -1.289476174026691 0.30495436547289756 -1.2759202014702509 0.3228572586889146 -1.2655350667886682 0.34214258866449276 C -1.2355921609359637 0.3977516130873946 -1.2232298045085104 0.4657728965329724 -1.2408535129350358 0.5274565503852051 C -1.245892326333788 0.5450910485620484 -1.2531565257357373 0.5610356020952529 -1.2608145510243123 0.5776288893663584 C -1.2673369550918618 0.5917607648460499 -1.275720591089358 0.6067868408833896 -1.2856309767569254 0.6188996843347265 C -1.2969453786846912 0.6327294468054994 -1.3081923446729662 0.6464486143355075 -1.3215068965660302 0.6585520167553156 C -1.3531545829690605 0.6873215372608799 -1.3938885878590828 0.7104331824431658 -1.4356085061844595 0.7208628248448128 C -1.4726888318728695 0.7301325690872176 -1.5095574087112786 0.7292248813416715 -1.5475521657391837 0.7292248813416715 C -1.5916107624461016 0.7292248813416715 -1.6356680104342294 0.7292248813416715 -1.6797266071411472 0.7292248813416715 C -1.9706007423843839 0.7292248813416715 -2.261473528908832 0.7292248813416715 -2.5523476641520686 0.7292248813416715 C -2.6143887284836027 0.7292248813416715 -2.676429792815137 0.7292248813416715 -2.7384708571466705 0.7292248813416715 C -2.760949953216533 0.7292248813416715 -2.7834277005676062 0.7292248813416715 -2.8059067966374682 0.7292248813416715 C -2.8279583488509585 0.7292248813416715 -2.849796803495659 0.7292801788120542 -2.8714545298225236 0.7246392374562973 C -2.890227346657972 0.7206160093062766 -2.910423061816676 0.7153384726817267 -2.9276961033578486 0.7067012775517456 C -2.9399114494372123 0.700592930152669 -2.9514133232767623 0.6937319976688752 -2.9631674075300083 0.6868751113414506 C -2.984671379914834 0.6743320265961625 -3.0043599768085674 0.6551114351224951 -3.020083340460242 0.6358935410864077 C -3.036174904341536 0.6162251749745216 -3.049788871805938 0.5960402495661361 -3.0612192635496283 0.5731781173599657 C -3.0666896669611217 0.5622373105369791 -3.0704188744149628 0.5502175286821391 -3.0737623482949163 0.5385160444616954 C -3.090994928272395 0.478204037618706 -3.0852318528835116 0.41269271984097555 -3.0571731071801804 0.3565738797155237 C -3.0402305017425126 0.3226900175589774 -3.014580567797793 0.2941389894973633 -2.9855561394409533 0.27039074904628413 C -2.9714552844934277 0.2588538085181986 -2.9541754993583056 0.2526173328340895 -2.9391602130712844 0.24260714197607558 C -2.936670478185284 0.23264685371328475 -2.9379463661604506 0.22153071344762187 -2.9379463661604506 0.21131686605234545 C -2.9379463661604506 0.19288392635193075 -2.9379463661604506 0.17445233537030602 -2.9379463661604506 0.15601939566989131 C -2.9379463661604506 0.09937320649762127 -2.9379463661604506 0.042727017325351335 -2.9379463661604506 -0.013919171846918932 C -2.9379463661604506 -0.03723447356646725 -2.938840566718098 -0.060777708761494464 -2.937676622402487 -0.08405254891734837 C -2.937053514321592 -0.0965079669412986 -2.937479709459174 -0.1089782208719372 -2.934844312943873 -0.1212771875162687 C -2.925025640154013 -0.16710125711905577 -2.9003184606433745 -0.20715281030143012 -2.8641714483575176 -0.23672751592451435 C -2.8405823567236363 -0.2560276818067807 -2.809460670648633 -0.27135047597788003 -2.7789324208411488 -0.275166001434269 C -2.745856441239703 -0.279301173243845 -2.712444630659592 -0.2779983108928827 -2.6791272303947684 -0.2779983108928827 C -2.5887630714770995 -0.2779983108928827 -2.498398912559431 -0.2779983108928827 -2.408034753641762 -0.2779983108928827 C -2.1724526939058197 -0.2779983108928827 -1.9368895162329345 -0.27786343901390087 -1.7013061077782021 -0.27786343901390087 C -1.6590467019368988 -0.27786343901390087 -1.6167859473768065 -0.27786343901390087 -1.5745265415355023 -0.27786343901390087 C -1.555258744904192 -0.27786343901390087 -1.5357684096725617 -0.27869020363205843 -1.516531633573417 -0.2777285671349191 C -1.505040549484185 -0.2771540129304579 -1.4933525524516398 -0.2774628695333256 -1.4820044325541284 -0.27503112955528725 C -1.4608929373371389 -0.27050752673424483 -1.4400309550962662 -0.263022137450766 -1.4213120870124105 -0.252102910128416 C -1.4114367680333784 -0.24634253217711244 -1.4023747264846045 -0.23856986579140316 -1.3935284799422023 -0.23133264076525056 C -1.3569525750811828 -0.20140726825681426 -1.3298177017488757 -0.15180273988617327 -1.3274412592412204 -0.10428333076458762 C -1.3265254791829353 -0.08595559112977891 -1.3274412592412204 -0.06733922567394923 -1.3274412592412204 -0.04898586038213382 C -1.3274412592412204 -0.04067370648049773 -1.3286578035896346 -0.03119356210688151 -1.3266320279673303 -0.023090459617667203 C -1.3149143591214099 -0.02016104240618699 -1.300635473293628 -0.02201148458581459 -1.2885981580945205 -0.02201148458581459 C -1.2674300166883588 -0.02201148458581459 -1.2463616804726443 -0.021202253311925268 -1.225208374973171 -0.021202253311925268 C -1.1559745933355483 -0.021202253311925268 -1.086716534759709 -0.021471997069888116 -1.0175056813415142 -0.021471997069888116 C -0.9819804284177613 -0.021471997069888116 -0.9464888934637545 -0.021202253311925268 -0.9109568969460535 -0.021202253311925268 C -0.9001671466275263 -0.021202253311925268 -0.8893773963089986 -0.021202253311925268 -0.8785876459904705 -0.021202253311925268 C -0.8733006683343918 -0.021202253311925268 -0.8671451157776722 -0.020320191223385575 -0.8619984048757341 -0.021606868948869984 M -2.9980992241862414 0.449365732454861 C -2.9980992241862414 0.4729764035893793 -2.999435804506949 0.49619864371243017 -2.990951014600217 0.5188247501303829 C -2.984303179685214 0.5365523099037237 -2.977218359882311 0.5552104856420377 -2.9650556138357507 0.5700760641433891 C -2.940379454857278 0.6002361137212535 -2.909557184353614 0.625739037317883 -2.8711847860645605 0.6367027723602974 C -2.841736860007719 0.6451160801711688 -2.812016492755334 0.6442555975832664 -2.7816298584207813 0.6442555975832664 C -2.7461140465285574 0.6442555975832664 -2.7105968859175444 0.6442555975832664 -2.6750810740253206 0.6442555975832664 C -2.341047937507973 0.6442555975832664 -2.0070161497094148 0.6442555975832664 -1.6729830131920673 0.6442555975832664 C -1.6298240119179566 0.6442555975832664 -1.5866650106438467 0.6442555975832664 -1.5435060093697355 0.6442555975832664 C -1.5173125417527205 0.6442555975832664 -1.489562652652257 0.6467520760632162 -1.4639316007705947 0.6403443130928004 C -1.4082982994094766 0.6264363249322182 -1.361833588381527 0.5899008816348938 -1.3362079313750237 0.5386509163406776 C -1.3265564997151005 0.5193467043020414 -1.3201608752137934 0.4973072905576592 -1.3190792027443607 0.47566574885627233 C -1.317077704060274 0.4356236367054265 -1.328628131776258 0.3909243985733464 -1.3544156350375394 0.359406189174137 C -1.3755203866605794 0.333611942318907 -1.402651213836517 0.3096991581754702 -1.4110618242098094 0.27605536796351104 C -1.4144970109674708 0.26231596965165627 -1.4140290055474045 0.2469715959799197 -1.4140290055474045 0.2328963666894005 C -1.4140290055474045 0.2135651802749685 -1.4140290055474045 0.19423264514174687 -1.4140290055474045 0.17490145872731477 C -1.4140290055474045 0.1065065801769578 -1.4126802867575878 0.03830052225717551 -1.4126802867575878 -0.030103797324710246 C -1.4126802867575878 -0.05581712105255143 -1.4103429570948367 -0.0828562353507819 -1.414163877426386 -0.10832948713403567 C -1.4175869257149385 -0.13114980905772172 -1.4322340117723402 -0.15485758794510646 -1.45003979723549 -0.16942644831269832 C -1.4604788806686657 -0.17796788440860278 -1.473584381149308 -0.1860682894602373 -1.4868598201974659 -0.1893874864019744 C -1.510771255622112 -0.19536500807843854 -1.5365655024773428 -0.19329877089244063 -1.5610393536373435 -0.19329877089244063 C -1.6208321037462539 -0.19329877089244063 -1.6806262025739542 -0.19329877089244063 -1.740418952682865 -0.19329877089244063 C -1.9953268039580803 -0.19329877089244063 -2.2502346552332955 -0.19329877089244063 -2.505142506508511 -0.19329877089244063 C -2.5712297272094924 -0.19329877089244063 -2.637316947910474 -0.19329877089244063 -2.7034041686114554 -0.19329877089244063 C -2.7415000795485973 -0.19329877089244063 -2.781508473729698 -0.1963401317634757 -2.812920134344511 -0.17064029522353263 C -2.8297696781856816 -0.15685504047282378 -2.8438664869768386 -0.1377571824090299 -2.8492006697905605 -0.11642179987293133 C -2.8518158355240133 -0.10595978822032903 -2.8508191323383394 -0.09474788892058894 -2.8508191323383394 -0.08405254891734837 C -2.8508191323383394 -0.06696832800674979 -2.8508191323383394 -0.04988545581494075 -2.8508191323383394 -0.03280123490434217 C -2.8508191323383394 0.036883018809078405 -2.8508191323383394 0.10656592380370966 -2.8508191323383394 0.17625017751713057 C -2.8508191323383394 0.20102883912362945 -2.8507975528377028 0.22572118272757968 -2.8520329792491736 0.25042971095700794 C -2.852449733355227 0.25876479307807054 -2.8519331740587273 0.2675422549621931 -2.855000160586769 0.2755158804475847 C -2.8584542294074877 0.2844956501501793 -2.864013648259109 0.29462183082411764 -2.8711847860645605 0.3011415374540878 C -2.8777557440085433 0.30711501297418276 -2.886128590255721 0.3108388255528646 -2.8939781336124497 0.31476359723122893 C -2.907689208829719 0.3216191348398634 -2.9223389923246996 0.3280363388418076 -2.934304825427947 0.337826688537082 C -2.969266313897556 0.36643166535028837 -2.9930293902553236 0.4037426219517568 -2.9980992241862414 0.449365732454861 M -0.8226158162131081 0.0636321585674986 C -0.8251001562239502 0.06984435731339078 -0.8238296631239432 0.07796094699050327 -0.8238296631239432 0.08453729980964575 C -0.8238296631239432 0.09937320649762127 -0.8238296631239432 0.1142091131855969 -0.8238296631239432 0.1290450198735721 C -0.8238296631239432 0.17897728691013826 -0.8238296631239432 0.22882997953810547 -0.8238296631239432 0.27875280554314297 C -0.8238296631239432 0.4504892152067781 -0.8238296631239432 0.6222269735892025 -0.8238296631239432 0.793963383252837 C -0.8238296631239432 0.8501968644754239 -0.8259876131876482 0.9062914276626588 -0.8259876131876482 0.9625532319798318 C -0.8259876131876482 0.9769400153107985 -0.8259876131876482 0.9913254499229753 -0.8259876131876482 1.005712233253942 C -0.8259876131876482 1.011173195633907 -0.8275399885147263 1.019568970100511 -0.8243691506398698 1.0243245525534026 C -0.8210108408532273 1.0243245525534026 -0.8105110650745107 1.0264636205540503 -0.8080496532830961 1.0236501931584947 C -0.8045861434308494 1.0196917035103839 -0.8057568313404091 1.013474109889333 -0.8057568313404091 1.0084096708335741 C -0.8057568313404091 0.9958220783682215 -0.8057568313404091 0.9832331371840799 -0.8057568313404091 0.9706455447187272 C -0.8057568313404091 0.914907043292003 -0.8056219594614276 0.8591523572398012 -0.8056219594614276 0.8034044147815489 C -0.8056219594614276 0.6339149706217477 -0.8056219594614276 0.4644268751807359 -0.8056219594614276 0.2949374310209346 C -0.8056219594614276 0.26211231311439387 -0.805487087582446 0.2293006823957513 -0.805487087582446 0.19648095936436993 C -0.805487087582446 0.1790217946302024 -0.806358359920667 0.16131446563870866 -0.805487087582446 0.1438809265615476 C -0.8046104203690656 0.12634623357515062 -0.8044081125505933 0.10887088421550517 -0.8044081125505933 0.09128089375872561 C -0.8044081125505933 0.0825277088128199 -0.8033547631757467 0.07256742055002907 -0.805487087582446 0.0640367742044432 C -0.8103815880706882 0.06281348626208016 -0.8176768080048027 0.06264489641335313 -0.8226158162131081 0.0636321585674986" fill="#1e2b31" transform="matrix(1,0,0,1,0,0)" fill-rule="evenodd"></path></g><g clip-path="url(#SvgjsClipPath96860fc605787-7a49-4f64-b24a-baf7901f701f)"><path d=" M -3.487009785494525 1.303779085803268 C -3.480244612044808 1.301749264024595 -3.472423391782665 1.3024303670134516 -3.4654302848574696 1.3024303670134516 C -3.4528426923921174 1.3024303670134516 -3.440253751207975 1.3024303670134516 -3.427666158742623 1.3024303670134516 C -3.3867554716911354 1.3024303670134516 -3.3458434359208584 1.3024303670134516 -3.304932748869371 1.3024303670134516 C -3.1744968059874803 1.3024303670134516 -3.0442240580791573 1.3002724169497466 -2.9138042998227442 1.3002724169497466 C -2.596925517593066 1.3002724169497466 -2.2799496276105202 1.3000026731917829 -1.962957553002497 1.3000026731917829 C -1.8572975742895261 1.3000026731917829 -1.7517360520482104 1.3018908794975252 -1.6460086373957479 1.3018908794975252 C -1.609639086509571 1.3018908794975252 -1.573056438054603 1.3028956749959382 -1.536762415420656 1.3010816482236358 C -1.5226130065966972 1.3003735708589828 -1.5084163926150942 1.3014174792022999 -1.4942777735414539 1.300407288828728 C -1.477940742840413 1.2992406470755373 -1.4614094966336388 1.3010897405363746 -1.4450495377131714 1.3002724169497466 C -1.4034091937963935 1.2981899951382705 -1.3612819623964922 1.3005421607077094 -1.3196186902602873 1.3005421607077094 C -1.2724270198046277 1.3005421607077094 -1.2252205134422787 1.300137545070765 -1.178003217329612 1.300137545070765 C -1.1569632042084836 1.300137545070765 -1.1356237755160152 1.2990868931334985 -1.1146134342082625 1.300137545070765 C -1.0883336485886983 1.301451197172045 -1.0613822010118068 1.3032085777551763 -1.0350390256091213 1.3018908794975252 C -0.9982513718981014 1.3000512270682165 -0.961319405276571 1.300137545070765 -0.9244440848442133 1.300137545070765 C -0.9163490746677376 1.300137545070765 -0.9081812336766122 1.3000148116608916 -0.9001671466275263 1.3012165201026173 C -0.8954628154886479 1.301921900029691 -0.890111099330658 1.302965808373009 -0.8880286775191819 1.3078252421727155 C -0.8880286775191819 1.3097673972300508 -0.8882849340892474 1.3116879727867483 -0.888433293156127 1.3136247329689248 C -0.8852354809054734 1.3144245232112854 -0.8818542428994052 1.314001025511283 -0.8785876459904705 1.3141642204848507 C -0.869785907168132 1.3146039028103307 -0.8602733935435594 1.317260878826268 -0.8520178858310965 1.3128155016950342 C -0.8488645813005067 1.3111174647386559 -0.8462588565985825 1.3072115751233497 -0.8443301887291454 1.3043185733191944 C -0.8380168360740168 1.2948492186958964 -0.834382038935463 1.2847850790862896 -0.8375865947800651 1.2735677849113904 C -0.8405686120243487 1.2631313989157946 -0.8494175560043309 1.2519141047408955 -0.8561989140795259 1.2436262277774766 C -0.8643451755700142 1.233668636952265 -0.8700394663006166 1.2216151371276802 -0.8781830303535254 1.2116615924588383 C -0.8867743690446535 1.2011604679613317 -0.8959631901596694 1.188644357591839 -0.9020553529332682 1.176460032044642 C -0.8932360807666617 1.1754795134844456 -0.8834120131016427 1.1761511754417742 -0.8745414896210231 1.1765949039236234 C -0.8606914963684029 1.1772867966627996 -0.8465474824196026 1.1764762166701195 -0.8327312071367281 1.175785672649734 C -0.8250516023475165 1.1754012877946365 -0.8175257515003431 1.1749764413758441 -0.8098029877098569 1.1749764413758441 C -0.8057622262155681 1.1749764413758441 -0.8010605925142702 1.174755251494314 -0.7973947748435508 1.1767297758026054 C -0.794985963084939 1.1780272432784085 -0.7942940703457637 1.1808190911733267 -0.7926742590791949 1.1827990103567771 C -0.7877905483412708 1.1887684397205025 -0.7839359100399768 1.1955781208902831 -0.7790521993020532 1.2015462015352185 C -0.7630172816099314 1.2211444342700346 -0.749230678140433 1.2426403143421205 -0.7331957604483108 1.2622385470769366 C -0.6844571095407317 1.3218074098667378 -0.6424876782392395 1.3868911837880964 -0.5937382375813414 1.4464735337657963 C -0.5791194746185258 1.4643413602932773 -0.5665494154974411 1.4839004801831888 -0.5519279550970468 1.5017710041482502 C -0.54237767734636 1.5134441652741064 -0.5343770774851713 1.5263689374369134 -0.5248187074217459 1.538051539594299 C -0.5023234267264063 1.5655465208434867 -0.4759155128218091 1.5977593204194507 -0.4877289407018073 1.6355639080979925 C -0.489702116291308 1.6418772607531207 -0.4929822003881399 1.6476255002353166 -0.4966304847145926 1.6530972523655996 C -0.5007899334623849 1.6593364254872884 -0.5062562907175088 1.66430780294655 -0.5120058789184938 1.6690121340854283 C -0.5205270842325516 1.675983661509987 -0.5303376647096729 1.6809806646262546 -0.5405987172625926 1.6849270158052565 C -0.549285814987797 1.6882677922476306 -0.5592029442493138 1.6890540953020927 -0.5683823243328017 1.689512659690631 C -0.5854490118991325 1.6903663986845843 -0.6025183969030428 1.6904567628435017 -0.6196336383458076 1.6904567628435017 C -0.6695362335689974 1.6904567628435017 -0.719438828792188 1.6904567628435017 -0.7693414240153782 1.6904567628435017 C -0.9419531521736042 1.6904567628435017 -1.114598598301575 1.689782403448594 -1.2872494393047047 1.689782403448594 C -1.5924550604085264 1.689782403448594 -1.89778880979738 1.6904567628435017 -2.2030294975897373 1.6904567628435017 C -2.263721843131455 1.6904567628435017 -2.324414188673172 1.6904567628435017 -2.3851065342148905 1.6904567628435017 C -2.418255344630987 1.6904567628435017 -2.4518141655591883 1.691707025161661 -2.4849117246612713 1.6900521472065575 C -2.5172526525222683 1.6884350333775677 -2.5495868367893157 1.6885685565377593 -2.58201947752802 1.6885685565377593 C -2.5999264169004066 1.6885685565377593 -2.618086915405278 1.6876743559801117 -2.635968229120658 1.6885685565377593 C -2.66827139285554 1.690184321647959 -2.700771469533735 1.6878968945804316 -2.7330759819874064 1.689512659690631 C -2.771607529093659 1.6914386301224875 -2.810453327677938 1.6903218909645201 -2.849065797911579 1.6903218909645201 C -2.918314415455889 1.6903218909645201 -2.987521222717715 1.6900521472065575 -3.0567684915432354 1.6900521472065575 C -3.2464968098630154 1.6900521472065575 -3.4362156871512664 1.6903218909645201 -3.625927820845568 1.6903218909645201 C -3.669985068833696 1.6903218909645201 -3.7140544552909325 1.6904567628435017 -3.7581022622475313 1.6904567628435017 C -3.7775035820390337 1.6904567628435017 -3.799200421210803 1.6930557439514768 -3.818255120273323 1.6889731721747039 C -3.8338031504823213 1.6856418367638593 -3.847413071790354 1.6796953356195605 -3.860604890273544 1.6709003403911702 C -3.8868293784227252 1.6534168987187867 -3.8976164313036734 1.622047048386457 -3.8865002910380104 1.5924049068238817 C -3.880397338514093 1.5761299171871725 -3.868509731100655 1.5614545080351856 -3.857637708935949 1.5481669305179186 C -3.844226049290019 1.531774602346495 -3.83315441674442 1.5134468627116864 -3.819738710942121 1.4970504883838947 C -3.8071214466633925 1.4816305864599288 -3.79658660419614 1.4645571552996481 -3.783997663011998 1.449170971345428 C -3.746443937028362 1.4032727222092005 -3.7144968350539918 1.3526863265595743 -3.6769093911006108 1.3067462671408625 C -3.665940261183038 1.2933386536513023 -3.6567204195358562 1.2784730751499513 -3.645753987055863 1.2650708565355502 C -3.6301209875631057 1.245963557440227 -3.617030322989152 1.2247198877818366 -3.6013811388709174 1.205592357904666 C -3.596726710327263 1.1999034620492228 -3.592517358984247 1.193645406864477 -3.5884334384886847 1.187519526121133 C -3.586321344863833 1.1843527344026452 -3.583865327947578 1.1798264341440223 -3.5804759976287706 1.1779436227134392 C -3.5779107344905405 1.1765180269526043 -3.5734599624841477 1.1769995195605683 -3.570630350463114 1.1769995195605683 C -3.564335879871043 1.1769995195605683 -3.558042757997762 1.1769995195605683 -3.5517482874056907 1.1769995195605683 C -3.534214943138083 1.1769995195605683 -3.5166815988704756 1.1769995195605683 -3.4991482546028685 1.1769995195605683 C -3.4922360708050615 1.1769995195605683 -3.4852928664750893 1.1756912623344467 -3.4783779852397028 1.176460032044642 C -3.4823297312938633 1.1856812224106137 -3.489030166241669 1.1946056946428256 -3.4953718419913837 1.2023554328091086 C -3.499730901120069 1.2076828720288812 -3.5031337186267746 1.2144035377585343 -3.506970823583801 1.2201585208346786 C -3.513455463525236 1.2298854807468316 -3.520594232079732 1.239414178996881 -3.5263923741571506 1.2495605904526668 C -3.531664515906541 1.2587885244125867 -3.540401516226969 1.2672476886623134 -3.5420375121190157 1.2781534287967649 C -3.5434968258495965 1.287877691271338 -3.5367410934314085 1.3057387742048705 -3.527606221067985 1.310657551631329 C -3.5213656992275064 1.3140172101367606 -3.512790545161857 1.3140293486058692 -3.5058918485519484 1.3140293486058692 C -3.500391773327079 1.3140293486058692 -3.4933339278999718 1.3149640107272118 -3.4884933761633223 1.311736526663182 C -3.4882007041859326 1.309099781429092 -3.4875317396661836 1.306386159223982 -3.487009785494525 1.303779085803268 M -2.7054272467961793 1.5849869534798942 C -2.7103905319427026 1.6098006817749282 -2.685435188174738 1.6352253796817486 -2.6634820924329037 1.6414982707731827 C -2.6457410454716648 1.6465667559853105 -2.6246430374425733 1.6436562208368877 -2.606296415744707 1.6436562208368877 C -2.5694318850626674 1.6436562208368877 -2.532566005661838 1.6436562208368877 -2.495701474979799 1.6436562208368877 C -2.2866500625583264 1.6436562208368877 -2.0775986501368533 1.6436562208368877 -1.8685472377153807 1.6436562208368877 C -1.8546109264602118 1.6436562208368877 -1.8406732664862546 1.6436562208368877 -1.8267369552310861 1.6436562208368877 C -1.8163963282695672 1.6436562208368877 -1.8060570500268378 1.6436562208368877 -1.7957164230653193 1.6436562208368877 C -1.7808805163773438 1.6436562208368877 -1.7660446096893683 1.6436562208368877 -1.7512087030013928 1.6436562208368877 C -1.7410960095153527 1.6436562208368877 -1.730837654400013 1.6443090007311592 -1.7209974021095151 1.6414982707731827 C -1.7038416991030565 1.6365970266909915 -1.6890233257593485 1.6239878547250022 -1.6820194290838337 1.6076454291488023 C -1.6793880787249034 1.6015047124987698 -1.677901790618526 1.5950335597452334 -1.6775686570774422 1.5883587504544343 C -1.6764492204818944 1.5659565313555908 -1.6916290504612728 1.5474197403083607 -1.700496876504313 1.5282058924286426 C -1.7151345215301856 1.4964907700861205 -1.7321229834067071 1.4652895096025185 -1.7486461373007427 1.434604808415415 C -1.76148728889858 1.4107567627738897 -1.774773517697057 1.3893458519855615 -1.8020554013774537 1.3802514411858324 C -1.822581552639663 1.3734093907650957 -1.8458847158901035 1.37580066917944 -1.8671985189255649 1.37580066917944 C -1.9067362102490195 1.37580066917944 -1.946314363136168 1.3763401566953666 -1.9858857724293684 1.3763401566953666 C -2.1189625067017186 1.3763401566953666 -2.252067564068655 1.3766099004533292 -2.3851065342148905 1.3766099004533292 C -2.430063377635826 1.3766099004533292 -2.4750215697755507 1.3766099004533292 -2.519978413196486 1.3766099004533292 C -2.5436565202704946 1.3766099004533292 -2.5700023931107596 1.373366231763822 -2.591865124693676 1.3842975975552803 C -2.613881610218632 1.3953058403177578 -2.625022027422512 1.4166223407907992 -2.6355636134837135 1.4377068616319921 C -2.6492504117627655 1.4650791094713067 -2.6615534245634667 1.4939565274800561 -2.676969280331063 1.5203833234477095 C -2.684046007821227 1.532516397680894 -2.689995206403106 1.5452213286809606 -2.6962559590254314 1.5577428339256125 C -2.7005057719321415 1.5662424597390319 -2.7043698512649637 1.5754744398553224 -2.7054272467961793 1.5849869534798942" fill="#38c8d7" transform="matrix(1,0,0,1,0,0)" fill-rule="evenodd"></path></g><g clip-path="url(#SvgjsClipPath96860fc605787-7a49-4f64-b24a-baf7901f701f)"><path d=" M -0.8044081125505933 -0.02201148458581459 C -0.8106445882347018 -0.020140811624339894 -0.818639793220731 -0.020894745427847083 -0.8250435100347775 -0.021606868948869984 C -0.8266970392710915 -0.028219637175337486 -0.8253806897322313 -0.03549192889002484 -0.8257178694296856 -0.042242266433053954 C -0.8266120699873336 -0.06013706733633206 -0.8258527413086667 -0.07826519659024811 -0.8258527413086667 -0.09619101802569197 C -0.8258527413086667 -0.1546350493447869 -0.8258527413086667 -0.21308042938267108 -0.8258527413086667 -0.271524460701766 C -0.8258527413086667 -0.28905780496937344 -0.8258527413086667 -0.3065911492369809 -0.8258527413086667 -0.3241244935045883 C -0.8258527413086667 -0.33626296261293165 -0.8252620024787278 -0.34850798050567083 -0.8270665882195014 -0.36053990082961895 C -0.8327730174192127 -0.3985832117339576 -0.854306661617414 -0.4325102328917778 -0.883712777391771 -0.456568678664515 C -0.9012798396291237 -0.47094197480758354 -0.9261030089556868 -0.4840623111949133 -0.9487210230609002 -0.4874543389513001 C -0.9672187012632261 -0.49022865350195144 -0.9866901544317987 -0.48866818586213445 -1.0053672122331698 -0.48866818586213445 C -1.0314419925966818 -0.48866818586213445 -1.0575181216789837 -0.48866818586213445 -1.0835929020424957 -0.48866818586213445 C -1.233749811069075 -0.48866818586213445 -1.3839080688144443 -0.48866818586213445 -1.534064977841024 -0.48866818586213445 C -1.958011801200242 -0.48866818586213445 -2.38195997327825 -0.48866818586213445 -2.8059067966374682 -0.48866818586213445 C -2.9434761131986953 -0.48866818586213445 -3.081045429759923 -0.48866818586213445 -3.2186147463211503 -0.48866818586213445 C -3.260694772563408 -0.48866818586213445 -3.303374978667134 -0.48656688198760134 -3.3453943125638497 -0.48866818586213445 C -3.3688755066945455 -0.4898429199280642 -3.3934613015141 -0.4921802495908153 -3.4168764084240952 -0.48866818586213445 C -3.4779167234135855 -0.4795117339980739 -3.5247968398287983 -0.43302274603190793 -3.541498024603089 -0.37456657624370515 C -3.5496604707190555 -0.3459980148378234 -3.5463534122464266 -0.3144123694991234 -3.5463534122464266 -0.28501164859992545 C -3.5463534122464266 -0.23376033458691925 -3.5463534122464266 -0.18250902057391305 -3.5463534122464266 -0.13125770656090685 C -3.5463534122464266 -0.08719910985398904 -3.5463534122464266 -0.04314186186586089 -3.5463534122464266 0.0009167348410565879 C -3.5463534122464266 0.009943709701294656 -3.5464424276865545 0.01889245887172364 -3.5468928997623532 0.027891110637375816 C -3.5471006024559846 0.032045164510008606 -3.5461821249601204 0.036226192758438414 -3.54999495297893 0.039085476592848 C -3.552053097852189 0.0406297596071874 -3.5588708713347086 0.03877796870876982 -3.561189318934402 0.03854598907692186 C -3.5640297207057547 0.03826140941227063 -3.5664938299347484 0.03833424022692067 -3.5691467597943163 0.037197270287105844 C -3.5691467597943163 -0.08368030253135927 -3.569281631673298 -0.2045848497256207 -3.569281631673298 -0.32547321229440407 C -3.569281631673298 -0.35238015215123253 -3.572064038536688 -0.38110381621794276 -3.5680677847624636 -0.40774505847317744 C -3.5621266784933243 -0.4473542318924922 -3.5458759657948318 -0.48489042453186004 -3.5143887769277886 -0.5106523021361346 C -3.497984310287257 -0.5240734028135932 -3.4779693234463886 -0.5348968711018662 -3.457337972118574 -0.5400543717541224 C -3.441992249728048 -0.5438914767111487 -3.4258238088757342 -0.5426169374547728 -3.4101328144750154 -0.5426169374547728 C -3.384956280825521 -0.5426169374547728 -3.3597810958948164 -0.5426169374547728 -3.334604562245322 -0.5426169374547728 C -3.2554792770031895 -0.5426169374547728 -3.176355340479847 -0.5426169374547728 -3.097230055237714 -0.5426169374547728 C -3.0473652241406386 -0.5426169374547728 -2.997276505724454 -0.5437566048321671 -2.947522269568143 -0.5412682186649567 C -2.920701647713863 -0.5399275921878798 -2.8934588768783707 -0.5412682186649567 -2.8665991421791865 -0.5412682186649567 C -2.812201267229539 -0.5412682186649567 -2.757802043561103 -0.5412682186649567 -2.7034041686114554 -0.5412682186649567 C -2.5397600716867164 -0.5412682186649567 -2.3761146260431882 -0.5412682186649567 -2.2124705291184483 -0.5412682186649567 C -2.0488264321937093 -0.5412682186649567 -1.8851809865501807 -0.5412682186649567 -1.7215368896254417 -0.5412682186649567 C -1.667139014675795 -0.5412682186649567 -1.6127397910073582 -0.5412682186649567 -1.558341916057711 -0.5412682186649567 C -1.5314821813585264 -0.5412682186649567 -1.504239410523034 -0.5399275921878798 -1.477418788668754 -0.5412682186649567 C -1.422737682773246 -0.5440020716519136 -1.3676762381790093 -0.5426169374547728 -1.312875096311208 -0.5426169374547728 C -1.2238596561833543 -0.5426169374547728 -1.1348442160555021 -0.5426169374547728 -1.0458287759276486 -0.5426169374547728 C -1.017056557984505 -0.5426169374547728 -0.9882829913225719 -0.5426169374547728 -0.9595107733794275 -0.5426169374547728 C -0.9479805764452909 -0.5426169374547728 -0.935890661213381 -0.5436433124538227 -0.9244440848442133 -0.5422123218178279 C -0.9083525209629189 -0.5402013821022124 -0.8882835853704574 -0.5330167571088628 -0.8756204646528758 -0.5226558993654967 C -0.8618985996852881 -0.5114291641590686 -0.8491491609651578 -0.5000419314166525 -0.8378563385380287 -0.4862404920404657 C -0.83256936088195 -0.47977878031845766 -0.8287295584873444 -0.47173771889357474 -0.824773766276814 -0.4643912476454474 C -0.8141714878700714 -0.44469995331413453 -0.806878965373536 -0.4207332204191052 -0.8057568313404091 -0.39830402694446565 C -0.8050635898824439 -0.3844459413791065 -0.8057568313404091 -0.37037071208858735 -0.8057568313404091 -0.35649374446017096 C -0.8057568313404091 -0.3340146483903086 -0.8057568313404091 -0.3115369010392358 -0.8057568313404091 -0.28905780496937344 C -0.8057568313404091 -0.19998032377718877 -0.8044081125505933 -0.11104580677672471 -0.8044081125505933 -0.02201148458581459" fill="#4abfd1" transform="matrix(1,0,0,1,0,0)" fill-rule="evenodd"></path></g><g clip-path="url(#SvgjsClipPath96860fc605787-7a49-4f64-b24a-baf7901f701f)"><path d=" M -3.5690118879153347 0.12391988847227153 C -3.562555571068486 0.12230547208086195 -3.554459212173221 0.12229872848691303 -3.547971874794206 0.12391988847227153 C -3.545927217108845 0.14027849867394915 -3.5468928997623532 0.1570875809514255 -3.5468928997623532 0.17355273993749876 C -3.5468928997623532 0.19073541731975407 -3.5460202787053423 0.2082094179606092 -3.5471626435203163 0.22534354146643132 C -3.5480109876391106 0.23807140068592458 -3.5471626435203163 0.2511566703847189 -3.5471626435203163 0.2639168988551678 C -3.5471626435203163 0.30204113288689527 -3.5457990888238125 0.3405038953348668 -3.547702131036243 0.3785579959895238 C -3.5484398802142723 0.39330893339374073 -3.547702131036243 0.40829319914859585 -3.547702131036243 0.4230657160534501 C -3.547702131036243 0.4531866527864099 -3.547702131036243 0.48330893823815924 -3.547702131036243 0.513429874971119 C -3.547702131036243 0.6141252198187781 -3.5468928997623532 0.7149149749817243 -3.5468928997623532 0.8155428838898928 C -3.5468928997623532 0.8690681377825287 -3.548915977947077 0.9224571710773934 -3.548915977947077 0.9760404198779911 C -3.548915977947077 0.9872792935535273 -3.548915977947077 0.9985195159478537 -3.548915977947077 1.00975838962339 C -3.548915977947077 1.0146097311103583 -3.548027172264588 1.0198602933591112 -3.551343671768746 1.0236501931584947 C -3.5520638876025075 1.024474260339072 -3.554766720057299 1.0245430449973523 -3.5557944437751385 1.0245942963113657 C -3.560451569756373 1.0248276246620034 -3.56464878263028 1.0241101062658216 -3.5691467597943163 1.0231107056425677 C -3.5691467597943163 0.9683217022438746 -3.569281631673298 0.9135030270318054 -3.569281631673298 0.8587018851640029 C -3.569281631673298 0.8275882914017387 -3.5705399863041962 0.7961118922850141 -3.568472400399408 0.765100801150776 C -3.5662025066761482 0.7310510465830822 -3.5693949240516423 0.6966587174427754 -3.5671236816095924 0.6625981731247632 C -3.566394024744302 0.6516492739890374 -3.5671236816095924 0.6403955644068131 -3.5671236816095924 0.6294196908952909 C -3.5671236816095924 0.6064914714684198 -3.5671236816095924 0.5835632520415486 -3.5671236816095924 0.5606350326146774 C -3.5671236816095924 0.504036048600051 -3.5663238913672317 0.4471659721086714 -3.5691467597943163 0.39069646509786704 C -3.570577750430311 0.36208744212829125 -3.5691467597943163 0.3330279470829167 -3.5691467597943163 0.30437846254964607 C -3.5691467597943163 0.2442283019614344 -3.5690118879153347 0.18405925931016487 -3.5690118879153347 0.12391988847227153" fill="#6edddf" transform="matrix(1,0,0,1,0,0)" fill-rule="evenodd"></path></g><g clip-path="url(#SvgjsClipPath96860fc605787-7a49-4f64-b24a-baf7901f701f)"><path d=" M -3.0345146315112723 0.7892428674884819 C -3.0328853792131745 0.7745768993680229 -3.02178137741662 0.7602723878832349 -3.0075402557149533 0.7555248977430828 C -2.999581466136249 0.7528719678835147 -2.990847163253401 0.7535018195583587 -2.9825889581033582 0.7535018195583587 C -2.9691017702051985 0.7535018195583587 -2.955614582307039 0.7535018195583587 -2.9421273944088795 0.7535018195583587 C -2.856708987293466 0.7535018195583587 -2.7712892314592623 0.7535018195583587 -2.6858708243438487 0.7535018195583587 C -2.661143414051362 0.7535018195583587 -2.6334461249837027 0.7486423857586517 -2.616007191031382 0.7699561887941133 C -2.6124115067377325 0.774350314611334 -2.6106757056552397 0.7793176459142261 -2.6087241095663756 0.784522351724126 C -2.606904687918914 0.7893736932110942 -2.607390226683248 0.7956101688952026 -2.607645134534523 0.8007069772019173 C -2.607901391104588 0.8058226675716895 -2.6098421974431334 0.8106295013385931 -2.6120959065409157 0.8151382682529478 C -2.6251690377706014 0.8412845307123198 -2.6571592987462465 0.837122384526948 -2.6818246679744004 0.837122384526948 C -2.6885601696107413 0.837122384526948 -2.6952997174034516 0.8379316158008372 -2.70205544982164 0.8379316158008372 C -2.785174291400417 0.8379316158008372 -2.8684050766387497 0.8384711033167638 -2.951568425937591 0.8384711033167638 C -2.977672878114479 0.8384711033167638 -3.0109740937538247 0.8437729168795307 -3.0276361656832114 0.8187798089854508 C -3.0298386234669805 0.8154767966691916 -3.0319331837475647 0.8118339072178988 -3.033031040842475 0.8079900586669233 C -3.0348275342705096 0.8016996342312217 -3.0345146315112723 0.7956614202092154 -3.0345146315112723 0.7892428674884819" fill="#1d2a2f" transform="matrix(1,0,0,1,0,0)" fill-rule="evenodd"></path></g><g clip-path="url(#SvgjsClipPath96860fc605787-7a49-4f64-b24a-baf7901f701f)"><path d=" M -2.7054272467961793 1.5849869534798942 C -2.7043698512649637 1.5754744398553224 -2.7005057719321415 1.5662424597390319 -2.6962559590254314 1.5577428339256125 C -2.689995206403106 1.5452213286809606 -2.684046007821227 1.532516397680894 -2.676969280331063 1.5203833234477095 C -2.6615534245634667 1.4939565274800561 -2.6492504117627655 1.4650791094713067 -2.6355636134837135 1.4377068616319921 C -2.625022027422512 1.4166223407907992 -2.613881610218632 1.3953058403177578 -2.591865124693676 1.3842975975552803 C -2.5700023931107596 1.373366231763822 -2.5436565202704946 1.3766099004533292 -2.519978413196486 1.3766099004533292 C -2.4750215697755507 1.3766099004533292 -2.430063377635826 1.3766099004533292 -2.3851065342148905 1.3766099004533292 C -2.252067564068655 1.3766099004533292 -2.1189625067017186 1.3763401566953666 -1.9858857724293684 1.3763401566953666 C -1.946314363136168 1.3763401566953666 -1.9067362102490195 1.37580066917944 -1.8671985189255649 1.37580066917944 C -1.8458847158901035 1.37580066917944 -1.822581552639663 1.3734093907650957 -1.8020554013774537 1.3802514411858324 C -1.774773517697057 1.3893458519855615 -1.76148728889858 1.4107567627738897 -1.7486461373007427 1.434604808415415 C -1.7321229834067071 1.4652895096025185 -1.7151345215301856 1.4964907700861205 -1.700496876504313 1.5282058924286426 C -1.6916290504612728 1.5474197403083607 -1.6764492204818944 1.5659565313555908 -1.6775686570774422 1.5883587504544343 C -1.677901790618526 1.5950335597452334 -1.6793880787249034 1.6015047124987698 -1.6820194290838337 1.6076454291488023 C -1.6890233257593485 1.6239878547250022 -1.7038416991030565 1.6365970266909915 -1.7209974021095151 1.6414982707731827 C -1.730837654400013 1.6443090007311592 -1.7410960095153527 1.6436562208368877 -1.7512087030013928 1.6436562208368877 C -1.7660446096893683 1.6436562208368877 -1.7808805163773438 1.6436562208368877 -1.7957164230653193 1.6436562208368877 C -1.8060570500268378 1.6436562208368877 -1.8163963282695672 1.6436562208368877 -1.8267369552310861 1.6436562208368877 C -1.8406732664862546 1.6436562208368877 -1.8546109264602118 1.6436562208368877 -1.8685472377153807 1.6436562208368877 C -2.0775986501368533 1.6436562208368877 -2.2866500625583264 1.6436562208368877 -2.495701474979799 1.6436562208368877 C -2.532566005661838 1.6436562208368877 -2.5694318850626674 1.6436562208368877 -2.606296415744707 1.6436562208368877 C -2.6246430374425733 1.6436562208368877 -2.6457410454716648 1.6465667559853105 -2.6634820924329037 1.6414982707731827 C -2.685435188174738 1.6352253796817486 -2.7103905319427026 1.6098006817749282 -2.7054272467961793 1.5849869534798942 M -2.673192867719578 1.5875495191805442 C -2.6751107458386967 1.5990540904576747 -2.6640620415125245 1.6087823990886172 -2.653501573388265 1.6114218417602866 C -2.64475108587994 1.6136094636373686 -2.6354152544168334 1.6125412783558335 -2.6265271975919466 1.6120962011551947 C -2.6108564339730753 1.6113125955383116 -2.595021126661846 1.6118264573972316 -2.579322039948388 1.6118264573972316 C -2.473297907162166 1.6118264573972316 -2.3671159742775356 1.6115567136392681 -2.261024405551823 1.6115567136392681 C -2.1207576514109636 1.6115567136392681 -1.9804908972701047 1.6115567136392681 -1.8402241431292459 1.6115567136392681 C -1.8082999693743016 1.6115567136392681 -1.7763744469005687 1.6118264573972316 -1.744465109052313 1.6118264573972316 C -1.730940157028039 1.6118264573972316 -1.7138640284301787 1.6108553798685639 -1.710072779912006 1.594427985008606 C -1.7081238812607218 1.5859836566655685 -1.711902991309786 1.578794985515849 -1.7153327831922884 1.571364893702753 C -1.7196850987270245 1.5619333032055704 -1.7248520404108092 1.552973764284823 -1.729764074243319 1.5438510303905078 C -1.7453754942354385 1.5148576225658343 -1.7608641808176855 1.4853017990058073 -1.7746764099441905 1.4553750777785808 C -1.7811650960419945 1.4413173818323293 -1.788480546757957 1.4266689470561384 -1.8007066825876379 1.4166668485108629 C -1.806359163035757 1.4120420917805843 -1.8156639739666973 1.4098989776235664 -1.8226907988616383 1.4088442795299307 C -1.8300278290782375 1.4077437249974405 -1.8381983675069424 1.4087094076509492 -1.8456190182885095 1.4087094076509492 C -1.8600192888073748 1.4087094076509492 -1.8743817952001245 1.4084396638929857 -1.8887780195626198 1.4084396638929857 C -1.9282765980411698 1.4084396638929857 -1.9679033048047518 1.407630432619096 -2.0074652730664235 1.407630432619096 C -2.129299087506868 1.407630432619096 -2.2511342506661025 1.407630432619096 -2.372968065106547 1.407630432619096 C -2.4188245039602894 1.407630432619096 -2.4646809428140317 1.407630432619096 -2.510537381667774 1.407630432619096 C -2.533793339760571 1.407630432619096 -2.5606746539603926 1.4041264612031543 -2.5814799900120935 1.4162622328739187 C -2.5886592201302836 1.4204500047162971 -2.594191664606109 1.4291424973166602 -2.5977994873688663 1.4363581428421763 C -2.6021019003083796 1.4449629687212016 -2.606969426420825 1.4533479534374873 -2.611286675267026 1.4619837998486795 C -2.622741343948933 1.4848917884937032 -2.6330469042219167 1.5090554343320457 -2.6459487481652966 1.5311730737662372 C -2.65200584425036 1.5415568597290303 -2.6571592987462465 1.552380328017304 -2.6625379892800325 1.5631377090848761 C -2.6664802943026644 1.571023667848929 -2.6710389638122423 1.5789339035512 -2.673192867719578 1.5875495191805442" fill="#1b292d" transform="matrix(1,0,0,1,0,0)" fill-rule="evenodd"></path></g><g clip-path="url(#SvgjsClipPath96860fc605787-7a49-4f64-b24a-baf7901f701f)"><path d=" M -2.4395947733234555 0.42522366611715556 C -2.438380926412621 0.4203682784738183 -2.437010628122168 0.4158230961521385 -2.4344696419221545 0.4114667344610332 C -2.418611406391499 0.3842806098147127 -2.3835258357932263 0.3897523619449961 -2.3567834396287557 0.3897523619449961 C -2.30597045922244 0.3897523619449961 -2.2551871506294994 0.39042672133990397 -2.2043782163795527 0.39042672133990397 C -2.173829735790221 0.39042672133990397 -2.1431895423231824 0.38889997166983203 -2.112665338672068 0.39042672133990397 C -2.106288596233818 0.3907450189743007 -2.0994708227512984 0.39095811654309154 -2.0933786599777005 0.39298928704055425 C -2.073479662952755 0.3996222860488692 -2.061670281229127 0.42255590035089985 -2.0659996685444364 0.4427570103847629 C -2.068706547155597 0.45539045928896926 -2.08092324195375 0.468231610886807 -2.0931089162197365 0.4722939518817322 C -2.099329207278368 0.4743669326616795 -2.1062184628567477 0.473859814396709 -2.112665338672068 0.4741821581874748 C -2.1243020843906 0.4747634559858853 -2.136073701988114 0.4743170300664563 -2.147732027207283 0.4743170300664563 C -2.2043782163795527 0.4743170300664563 -2.261024405551823 0.4743170300664563 -2.3176705947240928 0.4743170300664563 C -2.3458736533379345 0.4743170300664563 -2.3744772814323514 0.4757250924830243 -2.402639878482498 0.4743170300664563 C -2.425866164761919 0.47315578318842455 -2.445297156366797 0.44803184957173325 -2.4395947733234555 0.42522366611715556" fill="#1d2c31" transform="matrix(1,0,0,1,0,0)" fill-rule="evenodd"></path></g><g clip-path="url(#SvgjsClipPath96860fc605787-7a49-4f64-b24a-baf7901f701f)"><path d=" M -1.952977033957859 0.029779316943117973 C -1.9515541356346038 0.024087723650094706 -1.9494582266352292 0.018479750922039795 -1.9463683118877606 0.013459819586344901 C -1.935125392055855 -0.004808576421711841 -1.9143025226598875 -0.00501762783413362 -1.8955216135116992 -0.00501762783413362 C -1.8842827398361632 -0.00501762783413362 -1.8730425174418373 -0.00501762783413362 -1.8618036437663008 -0.00501762783413362 C -1.7718886082056406 -0.00501762783413362 -1.6819749213637705 -0.00501762783413362 -1.5920598858031103 -0.00501762783413362 C -1.5831070904763123 -0.00501762783413362 -1.5740261668644808 -0.0045712019147042815 -1.5650855100067909 -0.00501762783413362 C -1.5585388290010247 -0.00534536650005879 -1.5512854193493943 -0.005816069357704623 -1.5448547281595513 -0.0042083965602439655 C -1.5333056491623576 -0.0013207896312481537 -1.5244890744333306 0.006176738121338898 -1.5180152242422138 0.015887513408013643 C -1.5154850277925198 0.019682808082555847 -1.5142388116307295 0.024294077624936627 -1.5132947084778583 0.028700341911265137 C -1.5121145795367696 0.03420850944887377 -1.5118367434660671 0.040691800671518785 -1.5130249647198952 0.04623368617887258 C -1.5159988896514394 0.06011335124486872 -1.5265701475260172 0.07302059006340733 -1.5408085717901039 0.07657985894973152 C -1.5489467409678532 0.07861507560356373 -1.5581085877070735 0.07779370586056589 -1.566434228796607 0.07779370586056589 C -1.5808210121275739 0.07779370586056589 -1.5952064467397506 0.07779370586056589 -1.6095932300707174 0.07779370586056589 C -1.6990577935555793 0.07779370586056589 -1.7885237057592303 0.07779370586056589 -1.8779882692440921 0.07779370586056589 C -1.8878784241298128 0.07779370586056589 -1.897769927734323 0.07779370586056589 -1.9076600826200436 0.07779370586056589 C -1.9131183475624285 0.07779370586056589 -1.919083730769784 0.07849908578763942 -1.924384195613761 0.07698447458667657 C -1.9446985980259686 0.07118093763409838 -1.9563461334948196 0.049992565446089765 -1.952977033957859 0.029779316943117973" fill="#1f2b31" transform="matrix(1,0,0,1,0,0)" fill-rule="evenodd"></path></g><g clip-path="url(#SvgjsClipPath96860fc605787-7a49-4f64-b24a-baf7901f701f)"><path d=" M -1.8220164394667302 0.4466682948752292 C -1.8202361306641732 0.4306482130897955 -1.8060111935879841 0.4147144493069099 -1.7903215479060557 0.4107923750661251 C -1.7837114771171674 0.4091401945486004 -1.776847847195794 0.4095785281552906 -1.770090766058816 0.4095785281552906 C -1.7597501390972976 0.4095785281552906 -1.7494108608545682 0.4095785281552906 -1.7390702338930493 0.4095785281552906 C -1.6590467019368988 0.4095785281552906 -1.5790218212619593 0.4095785281552906 -1.498998289305809 0.4095785281552906 C -1.4871619332063846 0.4095785281552906 -1.4733699348617266 0.407632326941586 -1.4617736507068888 0.4101180156712172 C -1.4415536586099682 0.41445144914289545 -1.426906572552567 0.4351394466598826 -1.4279208090825084 0.45543496700903296 C -1.4287705019200927 0.4724382647922427 -1.4419353460274862 0.48783523849678145 -1.4585367256113302 0.4919852462130452 C -1.4758691107792554 0.4963186796847243 -1.496093149032546 0.4942780681557324 -1.5138341959937844 0.4942780681557324 C -1.5911346647132962 0.4942780681557324 -1.6684917796219803 0.4945478119136957 -1.7458138278421287 0.4945478119136957 C -1.7568342090737143 0.4945478119136957 -1.7677439953645364 0.49447093494267613 -1.778722566313638 0.49373858063980625 C -1.7841255337856405 0.49337847272292534 -1.7900410143977732 0.493285411126428 -1.7951769355493927 0.4913108868181373 C -1.8035443869214114 0.48809284378563644 -1.8101234371781327 0.48217196829834474 -1.8154077173966323 0.47512626134034597 C -1.817633103399828 0.47215908000275086 -1.8194997302049338 0.46903140112916764 -1.8205328487979329 0.4654154860536712 C -1.822359014039343 0.45902121027115395 -1.8220164394667302 0.45323116050647383 -1.8220164394667302 0.4466682948752292" fill="#1d2b31" transform="matrix(1,0,0,1,0,0)" fill-rule="evenodd"></path></g><g clip-path="url(#SvgjsClipPath96860fc605787-7a49-4f64-b24a-baf7901f701f)"><path d=" M -0.8226158162131081 0.0636321585674986 C -0.8176768080048027 0.06264489641335313 -0.8103815880706882 0.06281348626208016 -0.805487087582446 0.0640367742044432 C -0.8033547631757467 0.07256742055002907 -0.8044081125505933 0.0825277088128199 -0.8044081125505933 0.09128089375872561 C -0.8044081125505933 0.10887088421550517 -0.8046104203690656 0.12634623357515062 -0.805487087582446 0.1438809265615476 C -0.806358359920667 0.16131446563870866 -0.805487087582446 0.1790217946302024 -0.805487087582446 0.19648095936436993 C -0.805487087582446 0.2293006823957513 -0.8056219594614276 0.26211231311439387 -0.8056219594614276 0.2949374310209346 C -0.8056219594614276 0.4644268751807359 -0.8056219594614276 0.6339149706217477 -0.8056219594614276 0.8034044147815489 C -0.8056219594614276 0.8591523572398012 -0.8057568313404091 0.914907043292003 -0.8057568313404091 0.9706455447187272 C -0.8057568313404091 0.9832331371840799 -0.8057568313404091 0.9958220783682215 -0.8057568313404091 1.0084096708335741 C -0.8057568313404091 1.013474109889333 -0.8045861434308494 1.0196917035103839 -0.8080496532830961 1.0236501931584947 C -0.8105110650745107 1.0264636205540503 -0.8210108408532273 1.0243245525534026 -0.8243691506398698 1.0243245525534026 C -0.8275399885147263 1.019568970100511 -0.8259876131876482 1.011173195633907 -0.8259876131876482 1.005712233253942 C -0.8259876131876482 0.9913254499229753 -0.8259876131876482 0.9769400153107985 -0.8259876131876482 0.9625532319798318 C -0.8259876131876482 0.9062914276626588 -0.8238296631239432 0.8501968644754239 -0.8238296631239432 0.793963383252837 C -0.8238296631239432 0.6222269735892025 -0.8238296631239432 0.4504892152067781 -0.8238296631239432 0.27875280554314297 C -0.8238296631239432 0.22882997953810547 -0.8238296631239432 0.17897728691013826 -0.8238296631239432 0.1290450198735721 C -0.8238296631239432 0.1142091131855969 -0.8238296631239432 0.09937320649762127 -0.8238296631239432 0.08453729980964575 C -0.8238296631239432 0.07796094699050327 -0.8251001562239502 0.06984435731339078 -0.8226158162131081 0.0636321585674986" fill="#75d3dd" transform="matrix(1,0,0,1,0,0)" fill-rule="evenodd"></path></g></g><g><path d=" M 0.2955 0.9809999999999999 L 0.2955 0.7184999999999999 C 0.2955 0.708 0.3 0.702 0.312 0.6929999999999998 L 0.426 0.6164999999999999 C 0.426 0.6164999999999999 0.519 0.6839999999999999 0.519 0.7049999999999998 L 0.519 0.96 C 0.519 0.9749999999999999 0.513 0.9809999999999999 0.498 0.9809999999999999 M 0.459 0.17849999999999988 C 0.47700000000000004 0.17849999999999988 0.48 0.18149999999999988 0.48 0.19799999999999984 L 0.48 0.3599999999999999 C 0.48 0.37349999999999994 0.46950000000000003 0.38849999999999985 0.4545 0.3989999999999999 L 0.2955 0.4979999999999999 L 0.2955 0.17849999999999988 M 0.5775 1.146 C 0.654 1.146 0.72 1.107 0.72 1.0305 L 0.72 0.6344999999999998 C 0.72 0.5744999999999999 0.642 0.5309999999999999 0.6015 0.5025 C 0.6315000000000001 0.47699999999999987 0.681 0.44099999999999995 0.681 0.3869999999999999 L 0.681 0.15749999999999986 C 0.681 0.06599999999999984 0.6285000000000001 0.013499999999999845 0.5175 0.013499999999999845 L 0.063 0.013499999999999845 C 0.042 0.013499999999999845 0.03 0.025499999999999856 0.03 0.038999999999999924 C 0.03 0.07049999999999979 0.0945 0.10499999999999998 0.0945 0.16499999999999992 L 0.0945 0.9944999999999999 C 0.0945 1.0545 0.03 1.089 0.03 1.1204999999999998 C 0.03 1.134 0.042 1.146 0.063 1.146 M 1.371029296875 1.146 C 1.407029296875 1.146 1.422029296875 1.131 1.422029296875 1.095 L 1.422029296875 0.7785 C 1.422029296875 0.7619999999999999 1.408529296875 0.7499999999999999 1.396529296875 0.7499999999999999 C 1.378529296875 0.7499999999999999 1.261529296875 0.8294999999999999 1.237529296875 0.8474999999999999 C 1.225529296875 0.8564999999999999 1.221029296875 0.8639999999999999 1.221029296875 0.8864999999999998 L 1.221029296875 0.9809999999999999 L 1.098029296875 0.9809999999999999 C 1.087529296875 0.9809999999999999 1.078529296875 0.9734999999999999 1.078529296875 0.9629999999999999 L 1.078529296875 0.7949999999999999 L 1.251029296875 0.6854999999999999 C 1.273529296875 0.6719999999999999 1.279529296875 0.6599999999999999 1.279529296875 0.6344999999999998 L 1.279529296875 0.49649999999999994 C 1.279529296875 0.47999999999999987 1.2690292968749999 0.46499999999999986 1.251029296875 0.46499999999999986 C 1.239029296875 0.46499999999999986 1.225529296875 0.47099999999999986 1.212029296875 0.47999999999999987 L 1.078529296875 0.564 L 1.078529296875 0.1964999999999999 C 1.078529296875 0.1874999999999999 1.087529296875 0.17849999999999988 1.098029296875 0.17849999999999988 L 1.221029296875 0.17849999999999988 L 1.221029296875 0.3434999999999999 C 1.221029296875 0.3599999999999999 1.234529296875 0.3719999999999999 1.246529296875 0.3719999999999999 C 1.264529296875 0.3719999999999999 1.3815292968750001 0.29249999999999987 1.4055292968750002 0.27449999999999986 C 1.4175292968750002 0.26549999999999985 1.422029296875 0.2579999999999999 1.422029296875 0.23549999999999993 L 1.422029296875 0.06449999999999978 C 1.422029296875 0.02849999999999997 1.407029296875 0.013499999999999845 1.371029296875 0.013499999999999845 L 0.8460292968750001 0.013499999999999845 C 0.825029296875 0.013499999999999845 0.813029296875 0.025499999999999856 0.813029296875 0.038999999999999924 C 0.813029296875 0.07049999999999979 0.877529296875 0.10499999999999998 0.877529296875 0.16499999999999992 L 0.877529296875 0.9944999999999999 C 0.877529296875 1.0545 0.813029296875 1.089 0.813029296875 1.1204999999999998 C 0.813029296875 1.134 0.825029296875 1.146 0.8460292968750001 1.146 M 1.677054931640625 1.146 L 1.942554931640625 1.146 C 2.014554931640625 1.146 2.085054931640625 1.0844999999999998 2.085054931640625 1.023 L 2.085054931640625 0.714 C 2.085054931640625 0.6495 2.058054931640625 0.6194999999999999 2.0085549316406253 0.5864999999999999 L 1.758054931640625 0.4139999999999999 C 1.734054931640625 0.3959999999999999 1.729554931640625 0.3839999999999999 1.729554931640625 0.3629999999999999 L 1.729554931640625 0.17849999999999988 L 1.869054931640625 0.17849999999999988 L 1.869054931640625 0.2789999999999999 C 1.869054931640625 0.31799999999999984 1.881054931640625 0.3314999999999999 1.894554931640625 0.3404999999999999 C 1.920054931640625 0.3569999999999999 2.001054931640625 0.4139999999999999 2.037054931640625 0.4139999999999999 C 2.052054931640625 0.4139999999999999 2.070054931640625 0.3959999999999999 2.070054931640625 0.3689999999999999 L 2.070054931640625 0.13649999999999984 C 2.070054931640625 0.07499999999999996 2.011554931640625 0.013499999999999845 1.921554931640625 0.013499999999999845 L 1.671054931640625 0.013499999999999845 C 1.591554931640625 0.013499999999999845 1.528554931640625 0.053999999999999826 1.528554931640625 0.12899999999999978 L 1.528554931640625 0.4274999999999999 C 1.528554931640625 0.49349999999999994 1.566054931640625 0.5249999999999999 1.609554931640625 0.5549999999999999 L 1.857054931640625 0.726 C 1.8765549316406251 0.7394999999999998 1.884054931640625 0.7529999999999999 1.884054931640625 0.7725 L 1.884054931640625 0.9809999999999999 L 1.729554931640625 0.9809999999999999 L 1.729554931640625 0.8399999999999999 C 1.729554931640625 0.8009999999999999 1.717554931640625 0.7874999999999999 1.704054931640625 0.7785 C 1.680054931640625 0.7605 1.597554931640625 0.7049999999999998 1.567554931640625 0.7049999999999998 C 1.546554931640625 0.7049999999999998 1.528554931640625 0.7214999999999999 1.528554931640625 0.7484999999999999 L 1.528554931640625 1.023 C 1.528554931640625 1.0844999999999998 1.588554931640625 1.146 1.677054931640625 1.146 M 2.5545087890625 0.17849999999999988 C 2.6475087890625 0.17849999999999988 2.6475087890625 0.1874999999999999 2.6775087890625 0.22049999999999992 C 2.7030087890625 0.25049999999999983 2.7150087890625 0.26249999999999984 2.7345087890624997 0.26249999999999984 C 2.7585087890624997 0.26249999999999984 2.7750087890625 0.24599999999999989 2.7750087890625 0.22199999999999986 L 2.7750087890625 0.038999999999999924 C 2.7750087890625 0.014999999999999902 2.7585087890624997 -2.220446049250313e-16 2.7345087890624997 -2.220446049250313e-16 C 2.7255087890625 -2.220446049250313e-16 2.7105087890624997 0.0014999999999998348 2.6850087890625 0.0044999999999999485 C 2.6550087890625 0.008999999999999897 2.6160087890624997 0.013499999999999845 2.5920087890625 0.013499999999999845 L 2.3160087890625 0.013499999999999845 C 2.2095087890625 0.013499999999999845 2.1900087890625 -2.220446049250313e-16 2.1660087890625 -2.220446049250313e-16 C 2.1420087890625 -2.220446049250313e-16 2.1330087890625 0.010499999999999954 2.1330087890625 0.034499999999999975 L 2.1330087890625 0.23099999999999987 C 2.1330087890625 0.2489999999999999 2.1435087890625 0.26249999999999984 2.1600087890624997 0.26249999999999984 C 2.1810087890625 0.26249999999999984 2.1945087890624997 0.24749999999999994 2.2275087890625 0.21899999999999986 C 2.2605087890625 0.1904999999999999 2.2695087890625 0.17849999999999988 2.3535087890625 0.17849999999999988 L 2.3535087890625 0.9944999999999999 C 2.3535087890625 1.0545 2.2890087890624997 1.089 2.2890087890624997 1.1204999999999998 C 2.2890087890624997 1.134 2.3010087890624997 1.146 2.3220087890625 1.146 L 2.5860087890625 1.146 C 2.6070087890624998 1.146 2.6190087890625 1.134 2.6190087890625 1.1204999999999998 C 2.6190087890625 1.089 2.5545087890625 1.0545 2.5545087890625 0.9944999999999999 M 3.526505859375 0.16499999999999992 C 3.526505859375 0.10499999999999998 3.591005859375 0.07049999999999979 3.591005859375 0.038999999999999924 C 3.591005859375 0.025499999999999856 3.579005859375 0.013499999999999845 3.558005859375 0.013499999999999845 L 3.294005859375 0.013499999999999845 C 3.273005859375 0.013499999999999845 3.261005859375 0.025499999999999856 3.261005859375 0.038999999999999924 C 3.261005859375 0.07049999999999979 3.325505859375 0.10499999999999998 3.325505859375 0.16499999999999992 L 3.325505859375 0.5789999999999998 L 3.088505859375 0.69 L 3.088505859375 0.16499999999999992 C 3.088505859375 0.10499999999999998 3.153005859375 0.07049999999999979 3.153005859375 0.038999999999999924 C 3.153005859375 0.025499999999999856 3.141005859375 0.013499999999999845 3.120005859375 0.013499999999999845 L 2.856005859375 0.013499999999999845 C 2.835005859375 0.013499999999999845 2.823005859375 0.025499999999999856 2.823005859375 0.038999999999999924 C 2.823005859375 0.07049999999999979 2.887505859375 0.10499999999999998 2.887505859375 0.16499999999999992 L 2.887505859375 0.9944999999999999 C 2.887505859375 1.0545 2.823005859375 1.089 2.823005859375 1.1204999999999998 C 2.823005859375 1.134 2.835005859375 1.146 2.856005859375 1.146 L 3.120005859375 1.146 C 3.141005859375 1.146 3.153005859375 1.134 3.153005859375 1.1204999999999998 C 3.153005859375 1.089 3.088505859375 1.0545 3.088505859375 0.9944999999999999 L 3.088505859375 0.9059999999999999 L 3.325505859375 0.7949999999999999 L 3.325505859375 0.9944999999999999 C 3.325505859375 1.0545 3.261005859375 1.089 3.261005859375 1.1204999999999998 C 3.261005859375 1.134 3.273005859375 1.146 3.294005859375 1.146 L 3.558005859375 1.146 C 3.579005859375 1.146 3.591005859375 1.134 3.591005859375 1.1204999999999998 C 3.591005859375 1.089 3.526505859375 1.0545 3.526505859375 0.9944999999999999 M 3.9195087890625 0.16499999999999992 C 3.9195087890625 0.10499999999999998 3.9840087890625 0.07049999999999979 3.9840087890625 0.038999999999999924 C 3.9840087890625 0.025499999999999856 3.9720087890625 0.013499999999999845 3.9510087890625 0.013499999999999845 L 3.6870087890625003 0.013499999999999845 C 3.6660087890625 0.013499999999999845 3.6540087890625 0.025499999999999856 3.6540087890625 0.038999999999999924 C 3.6540087890625 0.07049999999999979 3.7185087890625 0.10499999999999998 3.7185087890625 0.16499999999999992 L 3.7185087890625 0.9944999999999999 C 3.7185087890625 1.0545 3.6540087890625 1.089 3.6540087890625 1.1204999999999998 C 3.6540087890625 1.134 3.6660087890625 1.146 3.6870087890625003 1.146 L 3.9510087890625 1.146 C 3.9720087890625 1.146 3.9840087890625 1.134 3.9840087890625 1.1204999999999998 C 3.9840087890625 1.089 3.9195087890625 1.0545 3.9195087890625 0.9944999999999999 M 4.476023437499999 0.17849999999999988 C 4.4910234375 0.17849999999999988 4.497023437499999 0.1844999999999999 4.497023437499999 0.19799999999999984 L 4.497023437499999 0.45299999999999985 C 4.497023437499999 0.4634999999999999 4.4940234375 0.4754999999999999 4.4610234375 0.4979999999999999 L 4.3125234374999994 0.5999999999999999 L 4.3125234374999994 0.17849999999999988 M 4.6965234375 1.011 C 4.686023437499999 0.9914999999999999 4.6230234375 0.8324999999999999 4.5615234375 0.6555 C 4.6305234375 0.6119999999999999 4.6980234375 0.5729999999999998 4.6980234375 0.5084999999999998 L 4.6980234375 0.15599999999999992 C 4.6980234375 0.05699999999999994 4.6350234375 0.011999999999999789 4.5345234375 0.011999999999999789 L 4.0800234374999995 0.013499999999999845 C 4.0590234375 0.013499999999999845 4.0470234375 0.025499999999999856 4.0470234375 0.038999999999999924 C 4.0470234375 0.07049999999999979 4.1115234375 0.10499999999999998 4.1115234375 0.16499999999999992 L 4.1115234375 0.9944999999999999 C 4.1115234375 1.0545 4.0470234375 1.089 4.0470234375 1.1204999999999998 C 4.0470234375 1.134 4.0590234375 1.146 4.0800234374999995 1.146 L 4.3440234375 1.146 C 4.3650234375 1.146 4.3770234375 1.134 4.3770234375 1.1204999999999998 C 4.3770234375 1.089 4.3125234374999994 1.0545 4.3125234374999994 0.9944999999999999 L 4.3125234374999994 0.8264999999999999 C 4.3125234374999994 0.8174999999999999 4.3140234374999995 0.813 4.3185234375 0.8099999999999998 L 4.3740234375 0.7754999999999999 C 4.3740234375 0.7754999999999999 4.4790234374999995 1.0439999999999998 4.4790234374999995 1.0605 C 4.4790234374999995 1.0935 4.4445234375 1.0979999999999999 4.4445234375 1.1204999999999998 C 4.4445234375 1.134 4.4580234375 1.146 4.4790234374999995 1.146 L 4.7385234375 1.146 C 4.7550234375 1.146 4.7700234375 1.134 4.7700234375 1.1204999999999998 C 4.7700234375 1.0875 4.7415234375 1.0904999999999998 4.6965234375 1.011 M 5.376059326171875 1.146 C 5.412059326171875 1.146 5.427059326171875 1.131 5.427059326171875 1.095 L 5.427059326171875 0.7785 C 5.427059326171875 0.7619999999999999 5.413559326171875 0.7499999999999999 5.401559326171875 0.7499999999999999 C 5.383559326171875 0.7499999999999999 5.266559326171875 0.8294999999999999 5.242559326171875 0.8474999999999999 C 5.230559326171875 0.8564999999999999 5.226059326171875 0.8639999999999999 5.226059326171875 0.8864999999999998 L 5.226059326171875 0.9809999999999999 L 5.103059326171875 0.9809999999999999 C 5.092559326171875 0.9809999999999999 5.083559326171875 0.9734999999999999 5.083559326171875 0.9629999999999999 L 5.083559326171875 0.7949999999999999 L 5.256059326171875 0.6854999999999999 C 5.278559326171875 0.6719999999999999 5.284559326171875 0.6599999999999999 5.284559326171875 0.6344999999999998 L 5.284559326171875 0.49649999999999994 C 5.284559326171875 0.47999999999999987 5.274059326171875 0.46499999999999986 5.256059326171875 0.46499999999999986 C 5.244059326171875 0.46499999999999986 5.230559326171875 0.47099999999999986 5.217059326171875 0.47999999999999987 L 5.083559326171875 0.564 L 5.083559326171875 0.1964999999999999 C 5.083559326171875 0.1874999999999999 5.092559326171875 0.17849999999999988 5.103059326171875 0.17849999999999988 L 5.226059326171875 0.17849999999999988 L 5.226059326171875 0.3434999999999999 C 5.226059326171875 0.3599999999999999 5.239559326171875 0.3719999999999999 5.251559326171875 0.3719999999999999 C 5.2695593261718745 0.3719999999999999 5.386559326171875 0.29249999999999987 5.4105593261718745 0.27449999999999986 C 5.422559326171875 0.26549999999999985 5.427059326171875 0.2579999999999999 5.427059326171875 0.23549999999999993 L 5.427059326171875 0.06449999999999978 C 5.427059326171875 0.02849999999999997 5.412059326171875 0.013499999999999845 5.376059326171875 0.013499999999999845 L 4.851059326171875 0.013499999999999845 C 4.830059326171875 0.013499999999999845 4.818059326171875 0.025499999999999856 4.818059326171875 0.038999999999999924 C 4.818059326171875 0.07049999999999979 4.882559326171875 0.10499999999999998 4.882559326171875 0.16499999999999992 L 4.882559326171875 0.9944999999999999 C 4.882559326171875 1.0545 4.818059326171875 1.089 4.818059326171875 1.1204999999999998 C 4.818059326171875 1.134 4.830059326171875 1.146 4.851059326171875 1.146" fill="#1b292d" fill-rule="nonzero"></path></g><g></g></g><defs><clipPath id="SvgjsClipPath96865"><path d=" M -3.9743272778747207 -0.6289349400029935 h 3.574327277874721 v 2.403869880005987 h -3.574327277874721 Z"></path></clipPath><clipPath id="SvgjsClipPath96860fc605787-7a49-4f64-b24a-baf7901f701f"><path d=" M -3.9743272778747207 -0.6289349400029935 L -0.3999999999999999 -0.6289349400029935 L -0.3999999999999999 1.7749349400029935 L -3.9743272778747207 1.7749349400029935 Z"></path></clipPath></defs></svg>